<?xml version="1.0" encoding="UTF-8" standalone="no" ?>
<!DOCTYPE sesx>
<sesx version="1.6">

  <session appBuild="11.1.1.3" appVersion="11.1" audioChannelType="stereo" bitDepth="32" duration="990742" sampleRate="44100">
    <tracks>
      <audioTrack automationLaneOpenState="false" id="10001" index="1" select="false" visible="true">
        <trackParameters trackHeight="134" trackHue="-1" trackMinimized="false">
          <name>Track 1</name>
        </trackParameters>
        <trackAudioParameters audioChannelType="stereo" automationMode="1" monitoring="false" recordArmed="false" solo="false" soloSafe="false">
          <trackOutput outputID="10000" type="trackID"/>
          <trackInput inputID="1"/>
          <component componentGuid="643b3536-7e9d-469b-8301-b2ab99abb44b" componentID="Audition.Fader" id="trackFader" name="volume" powered="true">
            <parameter index="0" name="volume" parameterValue="5.623414"/>
            <parameter index="1" name="static gain" parameterValue="1"/>
          </component>
          <component componentGuid="d515e5af-d623-4e98-9291-d7a72f8036a9" componentID="Audition.Mute" id="trackMute" name="Mute" powered="true">
            <parameter index="0" parameterValue="1"/>
            <parameter index="1" name="mute" parameterValue="1"/>
          </component>
          <component componentGuid="6edd2538-0853-4ace-abad-3e020c834e92" componentID="Audition.StereoPanner" id="trackPan" name="StereoPanner" powered="true">
            <parameter index="0" name="Pan" parameterValue="0"/>
          </component>
          <component componentGuid="064c9cff-5cc1-444c-82b8-da3ba01bcd8f" componentID="Audition.EQ" id="trackEQ" name="EQ" powered="false">
            <parameter index="0" name="Low Shelf Frequency" parameterValue="0.0009079"/>
            <parameter index="1" name="Low Shelf Gain" parameterValue="0.5"/>
            <parameter index="2" name="High Shelf Frequency" parameterValue="0.8161598"/>
            <parameter index="3" name="High Shelf Gain" parameterValue="0.5"/>
            <parameter index="4" name="EQ Band 1 Center Frequency" parameterValue="0.0013618"/>
            <parameter index="5" name="EQ Band 1 Q" parameterValue="0.0002"/>
            <parameter index="6" name="EQ Band 1 Gain" parameterValue="0.5"/>
            <parameter index="7" name="EQ Band 1 Enable" parameterValue="1"/>
            <parameter index="8" name="EQ Band 2 Center Frequency" parameterValue="0.0081707"/>
            <parameter index="9" name="EQ Band 2 Q" parameterValue="0.0002"/>
            <parameter index="10" name="EQ Band 2 Gain" parameterValue="0.5"/>
            <parameter index="11" name="EQ Band 2 Enable" parameterValue="1"/>
            <parameter index="12" name="EQ Band 3 Center Frequency" parameterValue="0.0354063"/>
            <parameter index="13" name="EQ Band 3 Q" parameterValue="0.0002"/>
            <parameter index="14" name="EQ Band 3 Gain" parameterValue="0.5"/>
            <parameter index="15" name="EQ Band 3 Enable" parameterValue="1"/>
            <parameter index="16" name="EQ Band 4 Center Frequency" parameterValue="0.1443486"/>
            <parameter index="17" name="EQ Band 4 Q" parameterValue="0.0002"/>
            <parameter index="18" name="EQ Band 4 Gain" parameterValue="0.5"/>
            <parameter index="19" name="EQ Band 4 Enable" parameterValue="1"/>
            <parameter index="20" name="EQ Band 5 Center Frequency" parameterValue="0.580118"/>
            <parameter index="21" name="EQ Band 5 Q" parameterValue="0.0002"/>
            <parameter index="22" name="EQ Band 5 Gain" parameterValue="0.5"/>
            <parameter index="23" name="EQ Band 5 Enable" parameterValue="1"/>
            <parameter index="24" name="Master Gain" parameterValue="0.6666667"/>
            <parameter index="25" name="ConstantQ" parameterValue="1"/>
            <parameter index="26" name="Low Shelf Filter Order" parameterValue="0"/>
            <parameter index="27" name="High Shelf Filter Order" parameterValue="0"/>
            <parameter index="28" name="Ultra-Quiet Mode" parameterValue="0"/>
            <parameter index="29" name="Low Shelf Enable" parameterValue="1"/>
            <parameter index="30" name="High Shelf Enable" parameterValue="1"/>
            <parameter index="31" name="Original Sample Rate" parameterValue="0.2296875"/>
            <parameter index="32" name="EQ Band 1 Bandwidth" parameterValue="0.0025"/>
            <parameter index="33" name="EQ Band 2 Bandwidth" parameterValue="0.01"/>
            <parameter index="34" name="EQ Band 3 Bandwidth" parameterValue="0.04"/>
            <parameter index="35" name="EQ Band 4 Bandwidth" parameterValue="0.16"/>
            <parameter index="36" name="EQ Band 5 Bandwidth" parameterValue="0.64"/>
            <parameter index="37" name="High-Pass Filter Enable" parameterValue="0"/>
            <parameter index="38" name="High-Pass Cutoff Frequency" parameterValue="0"/>
            <parameter index="39" name="High-Pass Slope" parameterValue="0.4"/>
            <parameter index="40" name="Low-Pass Filter Enable" parameterValue="0"/>
            <parameter index="41" name="Low-Pass Cutoff Frequency" parameterValue="0.906945"/>
            <parameter index="42" name="Low-Pass Slope" parameterValue="0.4"/>
            <parameter index="43" name="Bypass" parameterValue="0"/>
            <parameter index="44" name="LowGraphRange" parameterValue="1"/>
          </component>
        </trackAudioParameters>
        <editParameter parameterIndex="0" slotIndex="4294967280"/>
        <audioClip clipAutoCrossfade="true" crossFadeHeadClipID="-1" crossFadeTailClipID="1" endPoint="36018" fileID="3" hue="-1" id="0" lockedInTime="false" looped="true" name="Opening" offline="false" select="false" sourceInPoint="0" sourceOutPoint="36018" startPoint="0" zOrder="0">
          <component componentGuid="ee52e99a-7b9b-4f9c-a49e-2887d40b8033" componentID="Audition.Fader" id="clipGain" name="volume" powered="true">
            <parameter index="0" name="volume" parameterValue="1"/>
            <parameter index="1" name="static gain" parameterValue="1"/>
          </component>
          <component componentGuid="83db81ac-54a2-4e5d-a554-0545cc3198b1" componentID="Audition.Mute" id="clipMute" name="Mute" powered="true">
            <parameter index="0" parameterValue="0"/>
            <parameter index="1" name="mute" parameterValue="0"/>
          </component>
          <component componentGuid="97e8af77-d216-414f-8c0b-125a029514f2" componentID="Audition.StereoPanner" id="clipPan" name="StereoPanner" powered="true">
            <parameter index="0" name="Pan" parameterValue="0"/>
          </component>
          <fadeIn crossFadeLinkType="linkedAsymmetric" endPoint="0" shape="0" startPoint="0" type="cosine"/>
          <fadeOut crossFadeLinkType="linkedAsymmetric" endPoint="36018" shape="18" startPoint="30421" type="log"/>
          <editParameter parameterIndex="0" slotIndex="4294967280"/>
          <editParameter parameterIndex="0" slotIndex="4294967281"/>
          <channelMap>
            <channel index="0" sourceIndex="0"/>
            <channel index="1" sourceIndex="1"/>
          </channelMap>
        </audioClip>
        <audioClip clipAutoCrossfade="true" crossFadeHeadClipID="0" crossFadeTailClipID="2" endPoint="66439" fileID="3" hue="-1" id="1" lockedInTime="false" looped="false" name="Openingrev" offline="false" select="false" sourceInPoint="0" sourceOutPoint="36018" startPoint="30421" zOrder="1">
          <component componentGuid="43e32b12-dc83-491b-8394-c69ab4566977" componentID="Audition.Fader" id="clipGain" name="volume" powered="true">
            <parameter index="0" name="volume" parameterValue="1"/>
            <parameter index="1" name="static gain" parameterValue="1"/>
          </component>
          <component componentGuid="d2582cf5-8ac3-4805-8ff3-1ed235713c01" componentID="Audition.Mute" id="clipMute" name="Mute" powered="true">
            <parameter index="0" parameterValue="0"/>
            <parameter index="1" name="mute" parameterValue="0"/>
          </component>
          <component componentGuid="90592528-0344-4035-971f-fab4d20abeb2" componentID="Audition.StereoPanner" id="clipPan" name="StereoPanner" powered="true">
            <parameter index="0" name="Pan" parameterValue="0"/>
          </component>
          <fadeIn crossFadeLinkType="linkedAsymmetric" endPoint="5597" shape="19" startPoint="0" type="log"/>
          <fadeOut crossFadeLinkType="linkedAsymmetric" endPoint="36018" shape="19" startPoint="31451" type="log"/>
          <editParameter parameterIndex="0" slotIndex="4294967280"/>
          <editParameter parameterIndex="0" slotIndex="4294967281"/>
          <channelMap>
            <channel index="0" sourceIndex="0"/>
            <channel index="1" sourceIndex="1"/>
          </channelMap>
        </audioClip>
        <audioClip clipAutoCrossfade="true" crossFadeHeadClipID="1" crossFadeTailClipID="3" endPoint="97890" fileID="3" hue="-1" id="2" lockedInTime="false" looped="true" name="Opening" offline="false" select="false" sourceInPoint="0" sourceOutPoint="36018" startPoint="61872" zOrder="2">
          <component componentGuid="78cf1b54-ea9a-4129-b08e-b02edbc20dab" componentID="Audition.Fader" id="clipGain" name="volume" powered="true">
            <parameter index="0" name="volume" parameterValue="1"/>
            <parameter index="1" name="static gain" parameterValue="1"/>
          </component>
          <component componentGuid="78f70921-e23e-42cb-bfdf-7c97b8b339f4" componentID="Audition.Mute" id="clipMute" name="Mute" powered="true">
            <parameter index="0" parameterValue="0"/>
            <parameter index="1" name="mute" parameterValue="0"/>
          </component>
          <component componentGuid="b74b0def-3bab-4da1-80ae-08182bff927f" componentID="Audition.StereoPanner" id="clipPan" name="StereoPanner" powered="true">
            <parameter index="0" name="Pan" parameterValue="0"/>
          </component>
          <fadeIn crossFadeLinkType="linkedAsymmetric" endPoint="4567" shape="18" startPoint="0" type="log"/>
          <fadeOut crossFadeLinkType="linkedAsymmetric" endPoint="36018" shape="18" startPoint="30421" type="log"/>
          <editParameter parameterIndex="0" slotIndex="4294967280"/>
          <editParameter parameterIndex="0" slotIndex="4294967281"/>
          <channelMap>
            <channel index="0" sourceIndex="0"/>
            <channel index="1" sourceIndex="1"/>
          </channelMap>
        </audioClip>
        <audioClip clipAutoCrossfade="true" crossFadeHeadClipID="2" crossFadeTailClipID="4" endPoint="128311" fileID="3" hue="-1" id="3" lockedInTime="false" looped="false" name="Openingrev" offline="false" select="false" sourceInPoint="0" sourceOutPoint="36018" startPoint="92293" zOrder="3">
          <component componentGuid="374f5331-ee34-4a28-87b3-8a186d41323e" componentID="Audition.Fader" id="clipGain" name="volume" powered="true">
            <parameter index="0" name="volume" parameterValue="1"/>
            <parameter index="1" name="static gain" parameterValue="1"/>
          </component>
          <component componentGuid="4c99035c-9aed-46a5-8d8d-e8d81344a30b" componentID="Audition.Mute" id="clipMute" name="Mute" powered="true">
            <parameter index="0" parameterValue="0"/>
            <parameter index="1" name="mute" parameterValue="0"/>
          </component>
          <component componentGuid="cf32d23a-16f8-42cc-bd14-7ea9dc28e44a" componentID="Audition.StereoPanner" id="clipPan" name="StereoPanner" powered="true">
            <parameter index="0" name="Pan" parameterValue="0"/>
          </component>
          <fadeIn crossFadeLinkType="linkedAsymmetric" endPoint="5597" shape="19" startPoint="0" type="log"/>
          <fadeOut crossFadeLinkType="linkedAsymmetric" endPoint="36018" shape="19" startPoint="27326" type="log"/>
          <editParameter parameterIndex="0" slotIndex="4294967280"/>
          <editParameter parameterIndex="0" slotIndex="4294967281"/>
          <channelMap>
            <channel index="0" sourceIndex="0"/>
            <channel index="1" sourceIndex="1"/>
          </channelMap>
        </audioClip>
        <audioClip clipAutoCrossfade="true" crossFadeHeadClipID="3" crossFadeTailClipID="5" endPoint="155637" fileID="3" hue="-1" id="4" lockedInTime="false" looped="true" name="Opening" offline="false" select="false" sourceInPoint="0" sourceOutPoint="36018" startPoint="119619" zOrder="4">
          <component componentGuid="ea78455e-09f5-4b92-907e-ac29d28ce7aa" componentID="Audition.Fader" id="clipGain" name="volume" powered="true">
            <parameter index="0" name="volume" parameterValue="1"/>
            <parameter index="1" name="static gain" parameterValue="1"/>
          </component>
          <component componentGuid="21d8d6e2-557c-43a9-9e24-60e4add5c5ae" componentID="Audition.Mute" id="clipMute" name="Mute" powered="true">
            <parameter index="0" parameterValue="0"/>
            <parameter index="1" name="mute" parameterValue="0"/>
          </component>
          <component componentGuid="55f89014-562f-46c6-9c2c-9d0bfe19ef57" componentID="Audition.StereoPanner" id="clipPan" name="StereoPanner" powered="true">
            <parameter index="0" name="Pan" parameterValue="0"/>
          </component>
          <fadeIn crossFadeLinkType="linkedAsymmetric" endPoint="8692" shape="18" startPoint="0" type="log"/>
          <fadeOut crossFadeLinkType="linkedAsymmetric" endPoint="36018" shape="18" startPoint="30421" type="log"/>
          <editParameter parameterIndex="0" slotIndex="4294967280"/>
          <editParameter parameterIndex="0" slotIndex="4294967281"/>
          <channelMap>
            <channel index="0" sourceIndex="0"/>
            <channel index="1" sourceIndex="1"/>
          </channelMap>
        </audioClip>
        <audioClip clipAutoCrossfade="true" crossFadeHeadClipID="4" crossFadeTailClipID="6" endPoint="186058" fileID="3" hue="-1" id="5" lockedInTime="false" looped="false" name="Openingrev" offline="false" select="false" sourceInPoint="0" sourceOutPoint="36018" startPoint="150040" zOrder="5">
          <component componentGuid="e8d4f4d8-f846-4cc3-ab52-7edb3b63347e" componentID="Audition.Fader" id="clipGain" name="volume" powered="true">
            <parameter index="0" name="volume" parameterValue="1"/>
            <parameter index="1" name="static gain" parameterValue="1"/>
          </component>
          <component componentGuid="17a7b4c6-2af4-4e19-bd72-d11a9f0f898f" componentID="Audition.Mute" id="clipMute" name="Mute" powered="true">
            <parameter index="0" parameterValue="0"/>
            <parameter index="1" name="mute" parameterValue="0"/>
          </component>
          <component componentGuid="98a14d36-143b-45cc-900a-d43ea540113a" componentID="Audition.StereoPanner" id="clipPan" name="StereoPanner" powered="true">
            <parameter index="0" name="Pan" parameterValue="0"/>
          </component>
          <fadeIn crossFadeLinkType="linkedAsymmetric" endPoint="5597" shape="19" startPoint="0" type="log"/>
          <fadeOut crossFadeLinkType="linkedAsymmetric" endPoint="36018" shape="19" startPoint="26360" type="log"/>
          <editParameter parameterIndex="0" slotIndex="4294967280"/>
          <editParameter parameterIndex="0" slotIndex="4294967281"/>
          <channelMap>
            <channel index="0" sourceIndex="0"/>
            <channel index="1" sourceIndex="1"/>
          </channelMap>
        </audioClip>
        <audioClip clipAutoCrossfade="true" crossFadeHeadClipID="5" crossFadeTailClipID="7" endPoint="212418" fileID="3" hue="-1" id="6" lockedInTime="false" looped="true" name="Opening" offline="false" select="false" sourceInPoint="0" sourceOutPoint="36018" startPoint="176400" zOrder="6">
          <component componentGuid="4b5541c0-176f-4ba2-8e1c-539f059f0083" componentID="Audition.Fader" id="clipGain" name="volume" powered="true">
            <parameter index="0" name="volume" parameterValue="1"/>
            <parameter index="1" name="static gain" parameterValue="1"/>
          </component>
          <component componentGuid="cf64ebe9-33c4-4dc0-8ef2-6c236f2a45cc" componentID="Audition.Mute" id="clipMute" name="Mute" powered="true">
            <parameter index="0" parameterValue="0"/>
            <parameter index="1" name="mute" parameterValue="0"/>
          </component>
          <component componentGuid="bc801d0b-6288-49c0-84a7-44c99576a776" componentID="Audition.StereoPanner" id="clipPan" name="StereoPanner" powered="true">
            <parameter index="0" name="Pan" parameterValue="0"/>
          </component>
          <fadeIn crossFadeLinkType="linkedAsymmetric" endPoint="9658" shape="18" startPoint="0" type="log"/>
          <fadeOut crossFadeLinkType="linkedAsymmetric" endPoint="36018" shape="18" startPoint="30421" type="log"/>
          <editParameter parameterIndex="0" slotIndex="4294967280"/>
          <editParameter parameterIndex="0" slotIndex="4294967281"/>
          <channelMap>
            <channel index="0" sourceIndex="0"/>
            <channel index="1" sourceIndex="1"/>
          </channelMap>
        </audioClip>
        <audioClip clipAutoCrossfade="true" crossFadeHeadClipID="6" crossFadeTailClipID="8" endPoint="242839" fileID="3" hue="-1" id="7" lockedInTime="false" looped="false" name="Openingrev" offline="false" select="false" sourceInPoint="0" sourceOutPoint="36018" startPoint="206821" zOrder="7">
          <component componentGuid="e5a3fa24-31e4-4185-bb24-35c770d27f83" componentID="Audition.Fader" id="clipGain" name="volume" powered="true">
            <parameter index="0" name="volume" parameterValue="1"/>
            <parameter index="1" name="static gain" parameterValue="1"/>
          </component>
          <component componentGuid="f6708a68-86b1-47cd-89ac-558b1d9ac5c9" componentID="Audition.Mute" id="clipMute" name="Mute" powered="true">
            <parameter index="0" parameterValue="0"/>
            <parameter index="1" name="mute" parameterValue="0"/>
          </component>
          <component componentGuid="24402daf-f3de-4641-9898-a42ff264c0ff" componentID="Audition.StereoPanner" id="clipPan" name="StereoPanner" powered="true">
            <parameter index="0" name="Pan" parameterValue="0"/>
          </component>
          <fadeIn crossFadeLinkType="linkedAsymmetric" endPoint="5597" shape="19" startPoint="0" type="log"/>
          <fadeOut crossFadeLinkType="linkedAsymmetric" endPoint="36018" shape="19" startPoint="27358" type="log"/>
          <editParameter parameterIndex="0" slotIndex="4294967280"/>
          <editParameter parameterIndex="0" slotIndex="4294967281"/>
          <channelMap>
            <channel index="0" sourceIndex="0"/>
            <channel index="1" sourceIndex="1"/>
          </channelMap>
        </audioClip>
        <audioClip clipAutoCrossfade="true" crossFadeHeadClipID="7" crossFadeTailClipID="9" endPoint="270197" fileID="3" hue="-1" id="8" lockedInTime="false" looped="true" name="Opening" offline="false" select="false" sourceInPoint="0" sourceOutPoint="36018" startPoint="234179" zOrder="8">
          <component componentGuid="531c3100-4a03-4b3c-9ca9-5788c8b73292" componentID="Audition.Fader" id="clipGain" name="volume" powered="true">
            <parameter index="0" name="volume" parameterValue="1"/>
            <parameter index="1" name="static gain" parameterValue="1"/>
          </component>
          <component componentGuid="13cfb176-133e-486d-8ef9-d7fa7aed378c" componentID="Audition.Mute" id="clipMute" name="Mute" powered="true">
            <parameter index="0" parameterValue="0"/>
            <parameter index="1" name="mute" parameterValue="0"/>
          </component>
          <component componentGuid="4f94c26d-81d9-4053-9a4d-922cca5572c5" componentID="Audition.StereoPanner" id="clipPan" name="StereoPanner" powered="true">
            <parameter index="0" name="Pan" parameterValue="0"/>
          </component>
          <fadeIn crossFadeLinkType="linkedAsymmetric" endPoint="8660" shape="18" startPoint="0" type="log"/>
          <fadeOut crossFadeLinkType="linkedAsymmetric" endPoint="36018" shape="18" startPoint="30421" type="log"/>
          <editParameter parameterIndex="0" slotIndex="4294967280"/>
          <editParameter parameterIndex="0" slotIndex="4294967281"/>
          <channelMap>
            <channel index="0" sourceIndex="0"/>
            <channel index="1" sourceIndex="1"/>
          </channelMap>
        </audioClip>
        <audioClip clipAutoCrossfade="true" crossFadeHeadClipID="8" crossFadeTailClipID="-1" endPoint="300618" fileID="3" hue="-1" id="9" lockedInTime="false" looped="false" name="Openingrev" offline="false" select="false" sourceInPoint="0" sourceOutPoint="36018" startPoint="264600" zOrder="9">
          <component componentGuid="63c25dd8-6cbc-4dbe-bf92-76f62a12839e" componentID="Audition.Fader" id="clipGain" name="volume" powered="true">
            <parameter index="0" name="volume" parameterValue="1"/>
            <parameter index="1" name="static gain" parameterValue="1"/>
          </component>
          <component componentGuid="1a752a74-b455-42ac-8798-371fac3bfc82" componentID="Audition.Mute" id="clipMute" name="Mute" powered="true">
            <parameter index="0" parameterValue="0"/>
            <parameter index="1" name="mute" parameterValue="0"/>
          </component>
          <component componentGuid="0212bd1b-2c59-44e2-94f4-e4e1da7beeda" componentID="Audition.StereoPanner" id="clipPan" name="StereoPanner" powered="true">
            <parameter index="0" name="Pan" parameterValue="0"/>
          </component>
          <fadeIn crossFadeLinkType="linkedAsymmetric" endPoint="5597" shape="19" startPoint="0" type="log"/>
          <fadeOut crossFadeLinkType="linkedAsymmetric" endPoint="36018" shape="0" startPoint="36018" type="cosine"/>
          <editParameter parameterIndex="0" slotIndex="4294967280"/>
          <editParameter parameterIndex="0" slotIndex="4294967281"/>
          <channelMap>
            <channel index="0" sourceIndex="0"/>
            <channel index="1" sourceIndex="1"/>
          </channelMap>
        </audioClip>
      </audioTrack>
      <audioTrack automationLaneOpenState="false" id="10002" index="2" select="false" visible="true">
        <trackParameters trackHeight="134" trackHue="221.8163251876831055" trackMinimized="false">
          <name>Track 2</name>
        </trackParameters>
        <trackAudioParameters audioChannelType="stereo" automationMode="1" monitoring="false" recordArmed="false" solo="false" soloSafe="false">
          <trackOutput outputID="10000" type="trackID"/>
          <trackInput inputID="1"/>
          <component componentGuid="bf853553-f9b5-4463-8109-bb26d6835ce3" componentID="Audition.Fader" id="trackFader" name="volume" powered="true">
            <parameter index="0" name="volume" parameterValue="2.5409725"/>
            <parameter index="1" name="static gain" parameterValue="1"/>
          </component>
          <component componentGuid="d63a0b85-dd1f-4efd-a60c-c7a340145b30" componentID="Audition.Mute" id="trackMute" name="Mute" powered="true">
            <parameter index="0" parameterValue="1"/>
            <parameter index="1" name="mute" parameterValue="1"/>
          </component>
          <component componentGuid="8b541eef-8429-497d-9c84-fc7072eb2715" componentID="Audition.StereoPanner" id="trackPan" name="StereoPanner" powered="true">
            <parameter index="0" name="Pan" parameterValue="0"/>
          </component>
          <component componentGuid="b0ce2840-e027-4920-9106-b1d429adc990" componentID="Audition.EQ" id="trackEQ" name="EQ" powered="false">
            <parameter index="0" name="Low Shelf Frequency" parameterValue="0.0009079"/>
            <parameter index="1" name="Low Shelf Gain" parameterValue="0.5"/>
            <parameter index="2" name="High Shelf Frequency" parameterValue="0.8161598"/>
            <parameter index="3" name="High Shelf Gain" parameterValue="0.5"/>
            <parameter index="4" name="EQ Band 1 Center Frequency" parameterValue="0.0013618"/>
            <parameter index="5" name="EQ Band 1 Q" parameterValue="0.0002"/>
            <parameter index="6" name="EQ Band 1 Gain" parameterValue="0.5"/>
            <parameter index="7" name="EQ Band 1 Enable" parameterValue="1"/>
            <parameter index="8" name="EQ Band 2 Center Frequency" parameterValue="0.0081707"/>
            <parameter index="9" name="EQ Band 2 Q" parameterValue="0.0002"/>
            <parameter index="10" name="EQ Band 2 Gain" parameterValue="0.5"/>
            <parameter index="11" name="EQ Band 2 Enable" parameterValue="1"/>
            <parameter index="12" name="EQ Band 3 Center Frequency" parameterValue="0.0354063"/>
            <parameter index="13" name="EQ Band 3 Q" parameterValue="0.0002"/>
            <parameter index="14" name="EQ Band 3 Gain" parameterValue="0.5"/>
            <parameter index="15" name="EQ Band 3 Enable" parameterValue="1"/>
            <parameter index="16" name="EQ Band 4 Center Frequency" parameterValue="0.1443486"/>
            <parameter index="17" name="EQ Band 4 Q" parameterValue="0.0002"/>
            <parameter index="18" name="EQ Band 4 Gain" parameterValue="0.5"/>
            <parameter index="19" name="EQ Band 4 Enable" parameterValue="1"/>
            <parameter index="20" name="EQ Band 5 Center Frequency" parameterValue="0.580118"/>
            <parameter index="21" name="EQ Band 5 Q" parameterValue="0.0002"/>
            <parameter index="22" name="EQ Band 5 Gain" parameterValue="0.5"/>
            <parameter index="23" name="EQ Band 5 Enable" parameterValue="1"/>
            <parameter index="24" name="Master Gain" parameterValue="0.6666667"/>
            <parameter index="25" name="ConstantQ" parameterValue="1"/>
            <parameter index="26" name="Low Shelf Filter Order" parameterValue="0"/>
            <parameter index="27" name="High Shelf Filter Order" parameterValue="0"/>
            <parameter index="28" name="Ultra-Quiet Mode" parameterValue="0"/>
            <parameter index="29" name="Low Shelf Enable" parameterValue="1"/>
            <parameter index="30" name="High Shelf Enable" parameterValue="1"/>
            <parameter index="31" name="Original Sample Rate" parameterValue="0.2296875"/>
            <parameter index="32" name="EQ Band 1 Bandwidth" parameterValue="0.0025"/>
            <parameter index="33" name="EQ Band 2 Bandwidth" parameterValue="0.01"/>
            <parameter index="34" name="EQ Band 3 Bandwidth" parameterValue="0.04"/>
            <parameter index="35" name="EQ Band 4 Bandwidth" parameterValue="0.16"/>
            <parameter index="36" name="EQ Band 5 Bandwidth" parameterValue="0.64"/>
            <parameter index="37" name="High-Pass Filter Enable" parameterValue="0"/>
            <parameter index="38" name="High-Pass Cutoff Frequency" parameterValue="0"/>
            <parameter index="39" name="High-Pass Slope" parameterValue="0.4"/>
            <parameter index="40" name="Low-Pass Filter Enable" parameterValue="0"/>
            <parameter index="41" name="Low-Pass Cutoff Frequency" parameterValue="0.906945"/>
            <parameter index="42" name="Low-Pass Slope" parameterValue="0.4"/>
            <parameter index="43" name="Bypass" parameterValue="0"/>
            <parameter index="44" name="LowGraphRange" parameterValue="1"/>
          </component>
        </trackAudioParameters>
        <editParameter parameterIndex="0" slotIndex="4294967280"/>
        <audioClip clipAutoCrossfade="true" crossFadeHeadClipID="-1" crossFadeTailClipID="-1" endPoint="220500" fileID="4" hue="-1" id="0" lockedInTime="false" looped="true" name="Untitled 3" offline="false" select="false" sourceInPoint="0" sourceOutPoint="220500" startPoint="0" zOrder="0">
          <component componentGuid="4f4002bb-af53-4394-b05a-f6747bd38b6b" componentID="Audition.Fader" id="clipGain" name="volume" powered="true">
            <parameter index="0" name="volume" parameterValue="1"/>
            <parameter index="1" name="static gain" parameterValue="1"/>
          </component>
          <component componentGuid="654bbd98-ba3c-4abe-9e69-31b638edee49" componentID="Audition.Mute" id="clipMute" name="Mute" powered="true">
            <parameter index="0" parameterValue="0"/>
            <parameter index="1" name="mute" parameterValue="0"/>
          </component>
          <component componentGuid="c404277c-4c34-47b2-8482-26548088c99b" componentID="Audition.StereoPanner" id="clipPan" name="StereoPanner" powered="true">
            <parameter index="0" name="Pan" parameterValue="0"/>
          </component>
          <fadeIn crossFadeLinkType="linkedAsymmetric" endPoint="0" shape="0" startPoint="0" type="cosine"/>
          <fadeOut crossFadeLinkType="linkedAsymmetric" endPoint="220500" shape="0" startPoint="220500" type="cosine"/>
          <editParameter parameterIndex="0" slotIndex="4294967280"/>
          <editParameter parameterIndex="0" slotIndex="4294967281"/>
          <channelMap>
            <channel index="0" sourceIndex="0"/>
            <channel index="1" sourceIndex="1"/>
          </channelMap>
        </audioClip>
      </audioTrack>
      <audioTrack automationLaneOpenState="false" id="10003" index="3" select="false" visible="true">
        <trackParameters trackHeight="134" trackHue="323.0180025100708008" trackMinimized="false">
          <name>Track 3</name>
        </trackParameters>
        <trackAudioParameters audioChannelType="stereo" automationMode="1" monitoring="false" recordArmed="false" solo="false" soloSafe="false">
          <trackOutput outputID="10000" type="trackID"/>
          <trackInput inputID="1"/>
          <component componentGuid="521b79eb-14aa-42dd-90a7-17ea379bac49" componentID="Audition.Fader" id="trackFader" name="volume" powered="true">
            <parameter index="0" name="volume" parameterValue="1"/>
            <parameter index="1" name="static gain" parameterValue="1"/>
          </component>
          <component componentGuid="0c196b9e-14bb-4c4b-88e0-e721fd3d42f8" componentID="Audition.Mute" id="trackMute" name="Mute" powered="true">
            <parameter index="0" parameterValue="1"/>
            <parameter index="1" name="mute" parameterValue="0"/>
          </component>
          <component componentGuid="94c0ef52-e287-43d8-b5a7-28ac14931bf7" componentID="Audition.StereoPanner" id="trackPan" name="StereoPanner" powered="true">
            <parameter index="0" name="Pan" parameterValue="0"/>
          </component>
          <component componentGuid="7e018249-9945-4470-b254-4ca1a963bd8a" componentID="Audition.EQ" id="trackEQ" name="EQ" powered="false">
            <parameter index="0" name="Low Shelf Frequency" parameterValue="0.0009079"/>
            <parameter index="1" name="Low Shelf Gain" parameterValue="0.5"/>
            <parameter index="2" name="High Shelf Frequency" parameterValue="0.8161598"/>
            <parameter index="3" name="High Shelf Gain" parameterValue="0.5"/>
            <parameter index="4" name="EQ Band 1 Center Frequency" parameterValue="0.0013618"/>
            <parameter index="5" name="EQ Band 1 Q" parameterValue="0.0002"/>
            <parameter index="6" name="EQ Band 1 Gain" parameterValue="0.5"/>
            <parameter index="7" name="EQ Band 1 Enable" parameterValue="1"/>
            <parameter index="8" name="EQ Band 2 Center Frequency" parameterValue="0.0081707"/>
            <parameter index="9" name="EQ Band 2 Q" parameterValue="0.0002"/>
            <parameter index="10" name="EQ Band 2 Gain" parameterValue="0.5"/>
            <parameter index="11" name="EQ Band 2 Enable" parameterValue="1"/>
            <parameter index="12" name="EQ Band 3 Center Frequency" parameterValue="0.0354063"/>
            <parameter index="13" name="EQ Band 3 Q" parameterValue="0.0002"/>
            <parameter index="14" name="EQ Band 3 Gain" parameterValue="0.5"/>
            <parameter index="15" name="EQ Band 3 Enable" parameterValue="1"/>
            <parameter index="16" name="EQ Band 4 Center Frequency" parameterValue="0.1443486"/>
            <parameter index="17" name="EQ Band 4 Q" parameterValue="0.0002"/>
            <parameter index="18" name="EQ Band 4 Gain" parameterValue="0.5"/>
            <parameter index="19" name="EQ Band 4 Enable" parameterValue="1"/>
            <parameter index="20" name="EQ Band 5 Center Frequency" parameterValue="0.580118"/>
            <parameter index="21" name="EQ Band 5 Q" parameterValue="0.0002"/>
            <parameter index="22" name="EQ Band 5 Gain" parameterValue="0.5"/>
            <parameter index="23" name="EQ Band 5 Enable" parameterValue="1"/>
            <parameter index="24" name="Master Gain" parameterValue="0.6666667"/>
            <parameter index="25" name="ConstantQ" parameterValue="1"/>
            <parameter index="26" name="Low Shelf Filter Order" parameterValue="0"/>
            <parameter index="27" name="High Shelf Filter Order" parameterValue="0"/>
            <parameter index="28" name="Ultra-Quiet Mode" parameterValue="0"/>
            <parameter index="29" name="Low Shelf Enable" parameterValue="1"/>
            <parameter index="30" name="High Shelf Enable" parameterValue="1"/>
            <parameter index="31" name="Original Sample Rate" parameterValue="0.2296875"/>
            <parameter index="32" name="EQ Band 1 Bandwidth" parameterValue="0.0025"/>
            <parameter index="33" name="EQ Band 2 Bandwidth" parameterValue="0.01"/>
            <parameter index="34" name="EQ Band 3 Bandwidth" parameterValue="0.04"/>
            <parameter index="35" name="EQ Band 4 Bandwidth" parameterValue="0.16"/>
            <parameter index="36" name="EQ Band 5 Bandwidth" parameterValue="0.64"/>
            <parameter index="37" name="High-Pass Filter Enable" parameterValue="0"/>
            <parameter index="38" name="High-Pass Cutoff Frequency" parameterValue="0"/>
            <parameter index="39" name="High-Pass Slope" parameterValue="0.4"/>
            <parameter index="40" name="Low-Pass Filter Enable" parameterValue="0"/>
            <parameter index="41" name="Low-Pass Cutoff Frequency" parameterValue="0.906945"/>
            <parameter index="42" name="Low-Pass Slope" parameterValue="0.4"/>
            <parameter index="43" name="Bypass" parameterValue="0"/>
            <parameter index="44" name="LowGraphRange" parameterValue="1"/>
          </component>
        </trackAudioParameters>
        <editParameter parameterIndex="0" slotIndex="4294967280"/>
        <audioClip clipAutoCrossfade="true" crossFadeHeadClipID="-1" crossFadeTailClipID="-1" endPoint="46617" fileID="0" hue="-1" id="0" lockedInTime="false" looped="false" name="Track 3_001" offline="false" select="false" sourceInPoint="6864" sourceOutPoint="28732" startPoint="24749" zOrder="4">
          <component componentGuid="81fd3fd1-b01b-4388-a593-0b476854331a" componentID="Audition.Fader" id="clipGain" name="volume" powered="true">
            <parameter index="0" name="volume" parameterValue="1"/>
            <parameter index="1" name="static gain" parameterValue="1"/>
          </component>
          <component componentGuid="2af30418-f645-4c3c-bedc-5448d7383ca0" componentID="Audition.Mute" id="clipMute" name="Mute" powered="true">
            <parameter index="0" parameterValue="0"/>
            <parameter index="1" name="mute" parameterValue="0"/>
          </component>
          <component componentGuid="cd7592ad-a64d-413f-b929-8b34d20e48cc" componentID="Audition.StereoPanner" id="clipPan" name="StereoPanner" powered="true">
            <parameter index="0" name="Pan" parameterValue="0"/>
          </component>
          <fadeIn crossFadeLinkType="linkedAsymmetric" endPoint="0" shape="0" startPoint="0" type="cosine"/>
          <fadeOut crossFadeLinkType="linkedAsymmetric" endPoint="21868" shape="0" startPoint="21868" type="cosine"/>
          <clipStretch adaptiveWindowSize="37" pitchAdjustment="0" preserveFormants="true" stretchMode="realtime" stretchQuality="high" stretchRatio="1.1300707973748128" stretchType="solo" transientSensitivity="40"/>
          <take sourceInPoint="0"/>
          <editParameter parameterIndex="0" slotIndex="4294967280"/>
          <editParameter parameterIndex="0" slotIndex="4294967281"/>
          <channelMap>
            <channel index="0" sourceIndex="0"/>
            <channel index="1" sourceIndex="1"/>
          </channelMap>
        </audioClip>
        <audioClip clipAutoCrossfade="true" crossFadeHeadClipID="-1" crossFadeTailClipID="-1" endPoint="203663" fileID="0" hue="-1" id="1" lockedInTime="false" looped="false" name="Track 3_001" offline="false" select="false" sourceInPoint="84961" sourceOutPoint="184988" startPoint="103636" zOrder="0">
          <component componentGuid="459fcbb3-5c84-49b9-9116-a148c4b21f2e" componentID="Audition.Fader" id="clipGain" name="volume" powered="true">
            <parameter index="0" name="volume" parameterValue="1"/>
            <parameter index="1" name="static gain" parameterValue="1"/>
          </component>
          <component componentGuid="be4c39ae-4f11-49e6-b453-eecf217fdeff" componentID="Audition.Mute" id="clipMute" name="Mute" powered="true">
            <parameter index="0" parameterValue="0"/>
            <parameter index="1" name="mute" parameterValue="0"/>
          </component>
          <component componentGuid="bf34ff7b-299e-4d64-a125-ea93a4a2fac6" componentID="Audition.StereoPanner" id="clipPan" name="StereoPanner" powered="true">
            <parameter index="0" name="Pan" parameterValue="0"/>
          </component>
          <fadeIn crossFadeLinkType="linkedAsymmetric" endPoint="0" shape="0" startPoint="0" type="cosine"/>
          <fadeOut crossFadeLinkType="linkedAsymmetric" endPoint="100027" shape="0" startPoint="100027" type="cosine"/>
          <editParameter parameterIndex="0" slotIndex="4294967280"/>
          <editParameter parameterIndex="0" slotIndex="4294967281"/>
          <channelMap>
            <channel index="0" sourceIndex="0"/>
            <channel index="1" sourceIndex="1"/>
          </channelMap>
        </audioClip>
        <audioClip clipAutoCrossfade="true" crossFadeHeadClipID="-1" crossFadeTailClipID="-1" endPoint="271207" fileID="0" hue="-1" id="2" lockedInTime="false" looped="false" name="Track 3_001" offline="false" select="false" sourceInPoint="222111" sourceOutPoint="252532" startPoint="240786" zOrder="1">
          <component componentGuid="ac81c8e0-2185-4f0d-94db-2594d6fb7bfc" componentID="Audition.Fader" id="clipGain" name="volume" powered="true">
            <parameter index="0" name="volume" parameterValue="1"/>
            <parameter index="1" name="static gain" parameterValue="1"/>
          </component>
          <component componentGuid="66bac3eb-e1da-423a-bcf0-af9f3cbf69a3" componentID="Audition.Mute" id="clipMute" name="Mute" powered="true">
            <parameter index="0" parameterValue="0"/>
            <parameter index="1" name="mute" parameterValue="0"/>
          </component>
          <component componentGuid="8bad5fe5-2484-4f64-b407-604403a43656" componentID="Audition.StereoPanner" id="clipPan" name="StereoPanner" powered="true">
            <parameter index="0" name="Pan" parameterValue="0"/>
          </component>
          <fadeIn crossFadeLinkType="linkedAsymmetric" endPoint="0" shape="0" startPoint="0" type="cosine"/>
          <fadeOut crossFadeLinkType="linkedAsymmetric" endPoint="30421" shape="0" startPoint="30421" type="cosine"/>
          <editParameter parameterIndex="0" slotIndex="4294967280"/>
          <editParameter parameterIndex="0" slotIndex="4294967281"/>
          <channelMap>
            <channel index="0" sourceIndex="0"/>
            <channel index="1" sourceIndex="1"/>
          </channelMap>
        </audioClip>
        <audioClip clipAutoCrossfade="true" crossFadeHeadClipID="-1" crossFadeTailClipID="-1" endPoint="372780" fileID="0" hue="-1" id="3" lockedInTime="false" looped="false" name="Track 3_001" offline="false" select="false" sourceInPoint="307185" sourceOutPoint="354105" startPoint="325860" zOrder="2">
          <component componentGuid="f8005861-8d32-42af-ac4d-3c11761f4a5f" componentID="Audition.Fader" id="clipGain" name="volume" powered="true">
            <parameter index="0" name="volume" parameterValue="1"/>
            <parameter index="1" name="static gain" parameterValue="1"/>
          </component>
          <component componentGuid="f3b1052c-a519-41c8-bb8f-3a9c8377a2fd" componentID="Audition.Mute" id="clipMute" name="Mute" powered="true">
            <parameter index="0" parameterValue="0"/>
            <parameter index="1" name="mute" parameterValue="0"/>
          </component>
          <component componentGuid="4b6f7a24-c480-4f3e-8dae-6ed4b908aa94" componentID="Audition.StereoPanner" id="clipPan" name="StereoPanner" powered="true">
            <parameter index="0" name="Pan" parameterValue="0"/>
          </component>
          <fadeIn crossFadeLinkType="linkedAsymmetric" endPoint="0" shape="0" startPoint="0" type="cosine"/>
          <fadeOut crossFadeLinkType="linkedAsymmetric" endPoint="46920" shape="0" startPoint="46920" type="cosine"/>
          <editParameter parameterIndex="0" slotIndex="4294967280"/>
          <editParameter parameterIndex="0" slotIndex="4294967281"/>
          <channelMap>
            <channel index="0" sourceIndex="0"/>
            <channel index="1" sourceIndex="1"/>
          </channelMap>
        </audioClip>
        <audioClip clipAutoCrossfade="true" crossFadeHeadClipID="-1" crossFadeTailClipID="-1" endPoint="431708" fileID="0" hue="-1" id="4" lockedInTime="false" looped="false" name="Track 3_001" offline="false" select="false" sourceInPoint="383494" sourceOutPoint="413033" startPoint="402169" zOrder="3">
          <component componentGuid="3855b591-b460-4303-9828-371f5506e5a2" componentID="Audition.Fader" id="clipGain" name="volume" powered="true">
            <parameter index="0" name="volume" parameterValue="1"/>
            <parameter index="1" name="static gain" parameterValue="1"/>
          </component>
          <component componentGuid="03c43720-c585-4651-90ca-a89553a36a0c" componentID="Audition.Mute" id="clipMute" name="Mute" powered="true">
            <parameter index="0" parameterValue="0"/>
            <parameter index="1" name="mute" parameterValue="0"/>
          </component>
          <component componentGuid="0e6237ee-364f-482e-9fdd-ae1183cdbe6d" componentID="Audition.StereoPanner" id="clipPan" name="StereoPanner" powered="true">
            <parameter index="0" name="Pan" parameterValue="0"/>
          </component>
          <fadeIn crossFadeLinkType="linkedAsymmetric" endPoint="0" shape="0" startPoint="0" type="cosine"/>
          <fadeOut crossFadeLinkType="linkedAsymmetric" endPoint="29539" shape="0" startPoint="29539" type="cosine"/>
          <editParameter parameterIndex="0" slotIndex="4294967280"/>
          <editParameter parameterIndex="0" slotIndex="4294967281"/>
          <channelMap>
            <channel index="0" sourceIndex="0"/>
            <channel index="1" sourceIndex="1"/>
          </channelMap>
        </audioClip>
      </audioTrack>
      <audioTrack automationLaneOpenState="false" id="10004" index="4" select="true" visible="true">
        <trackParameters trackHeight="134" trackHue="286.5274715423583984" trackMinimized="false">
          <name>Track 4</name>
        </trackParameters>
        <trackAudioParameters audioChannelType="stereo" automationMode="1" monitoring="false" recordArmed="false" solo="false" soloSafe="false">
          <trackOutput outputID="10000" type="trackID"/>
          <trackInput inputID="1"/>
          <component componentGuid="c24dd61c-5436-4a51-b99e-835439a2595c" componentID="Audition.Fader" id="trackFader" name="volume" powered="true">
            <parameter index="0" name="volume" parameterValue="1"/>
            <parameter index="1" name="static gain" parameterValue="1"/>
          </component>
          <component componentGuid="4971b69d-6d32-48af-9d43-051c905ac10d" componentID="Audition.Mute" id="trackMute" name="Mute" powered="true">
            <parameter index="0" parameterValue="1"/>
            <parameter index="1" name="mute" parameterValue="0"/>
          </component>
          <component componentGuid="e330f946-d445-4961-a92e-3a60e9958f0e" componentID="Audition.StereoPanner" id="trackPan" name="StereoPanner" powered="true">
            <parameter index="0" name="Pan" parameterValue="0"/>
          </component>
          <component componentGuid="5b2b48fe-09ba-47d4-97a2-f88e56e7d8f5" componentID="Audition.EQ" id="trackEQ" name="EQ" powered="false">
            <parameter index="0" name="Low Shelf Frequency" parameterValue="0.0009079"/>
            <parameter index="1" name="Low Shelf Gain" parameterValue="0.5"/>
            <parameter index="2" name="High Shelf Frequency" parameterValue="0.8161598"/>
            <parameter index="3" name="High Shelf Gain" parameterValue="0.5"/>
            <parameter index="4" name="EQ Band 1 Center Frequency" parameterValue="0.0013618"/>
            <parameter index="5" name="EQ Band 1 Q" parameterValue="0.0002"/>
            <parameter index="6" name="EQ Band 1 Gain" parameterValue="0.5"/>
            <parameter index="7" name="EQ Band 1 Enable" parameterValue="1"/>
            <parameter index="8" name="EQ Band 2 Center Frequency" parameterValue="0.0081707"/>
            <parameter index="9" name="EQ Band 2 Q" parameterValue="0.0002"/>
            <parameter index="10" name="EQ Band 2 Gain" parameterValue="0.5"/>
            <parameter index="11" name="EQ Band 2 Enable" parameterValue="1"/>
            <parameter index="12" name="EQ Band 3 Center Frequency" parameterValue="0.0354063"/>
            <parameter index="13" name="EQ Band 3 Q" parameterValue="0.0002"/>
            <parameter index="14" name="EQ Band 3 Gain" parameterValue="0.5"/>
            <parameter index="15" name="EQ Band 3 Enable" parameterValue="1"/>
            <parameter index="16" name="EQ Band 4 Center Frequency" parameterValue="0.1443486"/>
            <parameter index="17" name="EQ Band 4 Q" parameterValue="0.0002"/>
            <parameter index="18" name="EQ Band 4 Gain" parameterValue="0.5"/>
            <parameter index="19" name="EQ Band 4 Enable" parameterValue="1"/>
            <parameter index="20" name="EQ Band 5 Center Frequency" parameterValue="0.580118"/>
            <parameter index="21" name="EQ Band 5 Q" parameterValue="0.0002"/>
            <parameter index="22" name="EQ Band 5 Gain" parameterValue="0.5"/>
            <parameter index="23" name="EQ Band 5 Enable" parameterValue="1"/>
            <parameter index="24" name="Master Gain" parameterValue="0.6666667"/>
            <parameter index="25" name="ConstantQ" parameterValue="1"/>
            <parameter index="26" name="Low Shelf Filter Order" parameterValue="0"/>
            <parameter index="27" name="High Shelf Filter Order" parameterValue="0"/>
            <parameter index="28" name="Ultra-Quiet Mode" parameterValue="0"/>
            <parameter index="29" name="Low Shelf Enable" parameterValue="1"/>
            <parameter index="30" name="High Shelf Enable" parameterValue="1"/>
            <parameter index="31" name="Original Sample Rate" parameterValue="0.2296875"/>
            <parameter index="32" name="EQ Band 1 Bandwidth" parameterValue="0.0025"/>
            <parameter index="33" name="EQ Band 2 Bandwidth" parameterValue="0.01"/>
            <parameter index="34" name="EQ Band 3 Bandwidth" parameterValue="0.04"/>
            <parameter index="35" name="EQ Band 4 Bandwidth" parameterValue="0.16"/>
            <parameter index="36" name="EQ Band 5 Bandwidth" parameterValue="0.64"/>
            <parameter index="37" name="High-Pass Filter Enable" parameterValue="0"/>
            <parameter index="38" name="High-Pass Cutoff Frequency" parameterValue="0"/>
            <parameter index="39" name="High-Pass Slope" parameterValue="0.4"/>
            <parameter index="40" name="Low-Pass Filter Enable" parameterValue="0"/>
            <parameter index="41" name="Low-Pass Cutoff Frequency" parameterValue="0.906945"/>
            <parameter index="42" name="Low-Pass Slope" parameterValue="0.4"/>
            <parameter index="43" name="Bypass" parameterValue="0"/>
            <parameter index="44" name="LowGraphRange" parameterValue="1"/>
          </component>
        </trackAudioParameters>
        <editParameter parameterIndex="0" slotIndex="4294967280"/>
        <audioClip clipAutoCrossfade="true" crossFadeHeadClipID="-1" crossFadeTailClipID="-1" endPoint="46617" fileID="0" hue="-1" id="0" lockedInTime="false" looped="false" name="Track 3_001" offline="false" select="false" sourceInPoint="110238" sourceOutPoint="132106" startPoint="24749" zOrder="0">
          <component componentGuid="8485b74f-fac0-4615-bc48-da932b3c3503" componentID="Audition.Fader" id="clipGain" name="volume" powered="true">
            <parameter index="0" name="volume" parameterValue="1"/>
            <parameter index="1" name="static gain" parameterValue="1"/>
          </component>
          <component componentGuid="82487c57-4264-4e32-9c8d-0cf1b0ad0eec" componentID="Audition.Mute" id="clipMute" name="Mute" powered="true">
            <parameter index="0" parameterValue="0"/>
            <parameter index="1" name="mute" parameterValue="0"/>
          </component>
          <component componentGuid="092a75d4-a4b4-465a-8c53-9bb1e32e29c5" componentID="Audition.StereoPanner" id="clipPan" name="StereoPanner" powered="true">
            <parameter index="0" name="Pan" parameterValue="0"/>
          </component>
          <fadeIn crossFadeLinkType="linkedAsymmetric" endPoint="3796" shape="19" startPoint="0" type="log"/>
          <fadeOut crossFadeLinkType="linkedAsymmetric" endPoint="21868" shape="38" startPoint="16648" type="log"/>
          <clipStretch adaptiveWindowSize="37" pitchAdjustment="0" preserveFormants="true" stretchMode="realtime" stretchQuality="high" stretchRatio="1.6287362171868909" stretchType="solo" transientSensitivity="40"/>
          <editParameter parameterIndex="0" slotIndex="4294967280"/>
          <editParameter parameterIndex="0" slotIndex="4294967281"/>
          <channelMap>
            <channel index="0" sourceIndex="0"/>
            <channel index="1" sourceIndex="1"/>
          </channelMap>
        </audioClip>
      </audioTrack>
      <audioTrack automationLaneOpenState="false" id="10005" index="5" select="false" visible="true">
        <trackParameters trackHeight="134" trackHue="333.8458013534545898" trackMinimized="false">
          <name>Track 5</name>
        </trackParameters>
        <trackAudioParameters audioChannelType="stereo" automationMode="1" monitoring="false" recordArmed="false" solo="false" soloSafe="false">
          <trackOutput outputID="10000" type="trackID"/>
          <trackInput inputID="1"/>
          <component componentGuid="f9124488-3f39-4d88-b34c-2ebda51a22e5" componentID="Audition.Fader" id="trackFader" name="volume" powered="true">
            <parameter index="0" name="volume" parameterValue="1"/>
            <parameter index="1" name="static gain" parameterValue="1"/>
          </component>
          <component componentGuid="d87c33a6-518c-40c0-9de0-8407d6cc4a16" componentID="Audition.Mute" id="trackMute" name="Mute" powered="true">
            <parameter index="0" parameterValue="1"/>
            <parameter index="1" name="mute" parameterValue="0"/>
          </component>
          <component componentGuid="ca633dc0-58c5-474f-b794-1e013cce64ef" componentID="Audition.StereoPanner" id="trackPan" name="StereoPanner" powered="true">
            <parameter index="0" name="Pan" parameterValue="0"/>
          </component>
          <component componentGuid="b7dce5a2-1031-48d7-aaca-018b083d7d55" componentID="Audition.EQ" id="trackEQ" name="EQ" powered="false">
            <parameter index="0" name="Low Shelf Frequency" parameterValue="0.0009079"/>
            <parameter index="1" name="Low Shelf Gain" parameterValue="0.5"/>
            <parameter index="2" name="High Shelf Frequency" parameterValue="0.8161598"/>
            <parameter index="3" name="High Shelf Gain" parameterValue="0.5"/>
            <parameter index="4" name="EQ Band 1 Center Frequency" parameterValue="0.0013618"/>
            <parameter index="5" name="EQ Band 1 Q" parameterValue="0.0002"/>
            <parameter index="6" name="EQ Band 1 Gain" parameterValue="0.5"/>
            <parameter index="7" name="EQ Band 1 Enable" parameterValue="1"/>
            <parameter index="8" name="EQ Band 2 Center Frequency" parameterValue="0.0081707"/>
            <parameter index="9" name="EQ Band 2 Q" parameterValue="0.0002"/>
            <parameter index="10" name="EQ Band 2 Gain" parameterValue="0.5"/>
            <parameter index="11" name="EQ Band 2 Enable" parameterValue="1"/>
            <parameter index="12" name="EQ Band 3 Center Frequency" parameterValue="0.0354063"/>
            <parameter index="13" name="EQ Band 3 Q" parameterValue="0.0002"/>
            <parameter index="14" name="EQ Band 3 Gain" parameterValue="0.5"/>
            <parameter index="15" name="EQ Band 3 Enable" parameterValue="1"/>
            <parameter index="16" name="EQ Band 4 Center Frequency" parameterValue="0.1443486"/>
            <parameter index="17" name="EQ Band 4 Q" parameterValue="0.0002"/>
            <parameter index="18" name="EQ Band 4 Gain" parameterValue="0.5"/>
            <parameter index="19" name="EQ Band 4 Enable" parameterValue="1"/>
            <parameter index="20" name="EQ Band 5 Center Frequency" parameterValue="0.580118"/>
            <parameter index="21" name="EQ Band 5 Q" parameterValue="0.0002"/>
            <parameter index="22" name="EQ Band 5 Gain" parameterValue="0.5"/>
            <parameter index="23" name="EQ Band 5 Enable" parameterValue="1"/>
            <parameter index="24" name="Master Gain" parameterValue="0.6666667"/>
            <parameter index="25" name="ConstantQ" parameterValue="1"/>
            <parameter index="26" name="Low Shelf Filter Order" parameterValue="0"/>
            <parameter index="27" name="High Shelf Filter Order" parameterValue="0"/>
            <parameter index="28" name="Ultra-Quiet Mode" parameterValue="0"/>
            <parameter index="29" name="Low Shelf Enable" parameterValue="1"/>
            <parameter index="30" name="High Shelf Enable" parameterValue="1"/>
            <parameter index="31" name="Original Sample Rate" parameterValue="0.2296875"/>
            <parameter index="32" name="EQ Band 1 Bandwidth" parameterValue="0.0025"/>
            <parameter index="33" name="EQ Band 2 Bandwidth" parameterValue="0.01"/>
            <parameter index="34" name="EQ Band 3 Bandwidth" parameterValue="0.04"/>
            <parameter index="35" name="EQ Band 4 Bandwidth" parameterValue="0.16"/>
            <parameter index="36" name="EQ Band 5 Bandwidth" parameterValue="0.64"/>
            <parameter index="37" name="High-Pass Filter Enable" parameterValue="0"/>
            <parameter index="38" name="High-Pass Cutoff Frequency" parameterValue="0"/>
            <parameter index="39" name="High-Pass Slope" parameterValue="0.4"/>
            <parameter index="40" name="Low-Pass Filter Enable" parameterValue="0"/>
            <parameter index="41" name="Low-Pass Cutoff Frequency" parameterValue="0.906945"/>
            <parameter index="42" name="Low-Pass Slope" parameterValue="0.4"/>
            <parameter index="43" name="Bypass" parameterValue="0"/>
            <parameter index="44" name="LowGraphRange" parameterValue="1"/>
          </component>
        </trackAudioParameters>
        <editParameter parameterIndex="0" slotIndex="4294967280"/>
        <audioClip clipAutoCrossfade="true" crossFadeHeadClipID="-1" crossFadeTailClipID="-1" endPoint="48979" fileID="0" hue="-1" id="0" lockedInTime="false" looped="false" name="Track 3_001" offline="false" select="false" sourceInPoint="361193" sourceOutPoint="385423" startPoint="24749" zOrder="0">
          <component componentGuid="b598c482-5a75-43b2-bbd5-744b4dcf3804" componentID="Audition.Fader" id="clipGain" name="volume" powered="true">
            <parameter index="0" name="volume" parameterValue="1"/>
            <parameter index="1" name="static gain" parameterValue="1"/>
          </component>
          <component componentGuid="0931e7c1-ecd6-42af-9b73-efa318cb420a" componentID="Audition.Mute" id="clipMute" name="Mute" powered="true">
            <parameter index="0" parameterValue="0"/>
            <parameter index="1" name="mute" parameterValue="0"/>
          </component>
          <component componentGuid="20b227e9-40a9-4c90-84bb-200d9354d555" componentID="Audition.StereoPanner" id="clipPan" name="StereoPanner" powered="true">
            <parameter index="0" name="Pan" parameterValue="0"/>
          </component>
          <fadeIn crossFadeLinkType="linkedAsymmetric" endPoint="2453" shape="33" startPoint="0" type="log"/>
          <fadeOut crossFadeLinkType="linkedAsymmetric" endPoint="24230" shape="38" startPoint="20024" type="log"/>
          <clipStretch adaptiveWindowSize="37" pitchAdjustment="0" preserveFormants="true" stretchMode="realtime" stretchQuality="high" stretchRatio="1.8861887376150355" stretchType="solo" transientSensitivity="40"/>
          <editParameter parameterIndex="0" slotIndex="4294967280"/>
          <editParameter parameterIndex="0" slotIndex="4294967281"/>
          <channelMap>
            <channel index="0" sourceIndex="0"/>
            <channel index="1" sourceIndex="1"/>
          </channelMap>
        </audioClip>
      </audioTrack>
      <audioTrack automationLaneOpenState="false" id="10006" index="6" select="false" visible="true">
        <trackParameters trackHeight="134" trackHue="300.2736425399780273" trackMinimized="false">
          <name>Track 6</name>
        </trackParameters>
        <trackAudioParameters audioChannelType="stereo" automationMode="1" monitoring="false" recordArmed="false" solo="false" soloSafe="false">
          <trackOutput outputID="10000" type="trackID"/>
          <trackInput inputID="1"/>
          <component componentGuid="bc79d83e-2bd0-4daa-a6a9-d731be99a8bb" componentID="Audition.Fader" id="trackFader" name="volume" powered="true">
            <parameter index="0" name="volume" parameterValue="1"/>
            <parameter index="1" name="static gain" parameterValue="1"/>
          </component>
          <component componentGuid="39bfb702-1215-4816-8050-30549617f295" componentID="Audition.Mute" id="trackMute" name="Mute" powered="true">
            <parameter index="0" parameterValue="1"/>
            <parameter index="1" name="mute" parameterValue="0"/>
          </component>
          <component componentGuid="c24f096e-792c-4cbf-80b7-5cf8c07f68a8" componentID="Audition.StereoPanner" id="trackPan" name="StereoPanner" powered="true">
            <parameter index="0" name="Pan" parameterValue="0"/>
          </component>
          <component componentGuid="da7ef88d-bd64-4d2b-937c-2b0029a74367" componentID="Audition.EQ" id="trackEQ" name="EQ" powered="false">
            <parameter index="0" name="Low Shelf Frequency" parameterValue="0.0009079"/>
            <parameter index="1" name="Low Shelf Gain" parameterValue="0.5"/>
            <parameter index="2" name="High Shelf Frequency" parameterValue="0.8161598"/>
            <parameter index="3" name="High Shelf Gain" parameterValue="0.5"/>
            <parameter index="4" name="EQ Band 1 Center Frequency" parameterValue="0.0013618"/>
            <parameter index="5" name="EQ Band 1 Q" parameterValue="0.0002"/>
            <parameter index="6" name="EQ Band 1 Gain" parameterValue="0.5"/>
            <parameter index="7" name="EQ Band 1 Enable" parameterValue="1"/>
            <parameter index="8" name="EQ Band 2 Center Frequency" parameterValue="0.0081707"/>
            <parameter index="9" name="EQ Band 2 Q" parameterValue="0.0002"/>
            <parameter index="10" name="EQ Band 2 Gain" parameterValue="0.5"/>
            <parameter index="11" name="EQ Band 2 Enable" parameterValue="1"/>
            <parameter index="12" name="EQ Band 3 Center Frequency" parameterValue="0.0354063"/>
            <parameter index="13" name="EQ Band 3 Q" parameterValue="0.0002"/>
            <parameter index="14" name="EQ Band 3 Gain" parameterValue="0.5"/>
            <parameter index="15" name="EQ Band 3 Enable" parameterValue="1"/>
            <parameter index="16" name="EQ Band 4 Center Frequency" parameterValue="0.1443486"/>
            <parameter index="17" name="EQ Band 4 Q" parameterValue="0.0002"/>
            <parameter index="18" name="EQ Band 4 Gain" parameterValue="0.5"/>
            <parameter index="19" name="EQ Band 4 Enable" parameterValue="1"/>
            <parameter index="20" name="EQ Band 5 Center Frequency" parameterValue="0.580118"/>
            <parameter index="21" name="EQ Band 5 Q" parameterValue="0.0002"/>
            <parameter index="22" name="EQ Band 5 Gain" parameterValue="0.5"/>
            <parameter index="23" name="EQ Band 5 Enable" parameterValue="1"/>
            <parameter index="24" name="Master Gain" parameterValue="0.6666667"/>
            <parameter index="25" name="ConstantQ" parameterValue="1"/>
            <parameter index="26" name="Low Shelf Filter Order" parameterValue="0"/>
            <parameter index="27" name="High Shelf Filter Order" parameterValue="0"/>
            <parameter index="28" name="Ultra-Quiet Mode" parameterValue="0"/>
            <parameter index="29" name="Low Shelf Enable" parameterValue="1"/>
            <parameter index="30" name="High Shelf Enable" parameterValue="1"/>
            <parameter index="31" name="Original Sample Rate" parameterValue="0.2296875"/>
            <parameter index="32" name="EQ Band 1 Bandwidth" parameterValue="0.0025"/>
            <parameter index="33" name="EQ Band 2 Bandwidth" parameterValue="0.01"/>
            <parameter index="34" name="EQ Band 3 Bandwidth" parameterValue="0.04"/>
            <parameter index="35" name="EQ Band 4 Bandwidth" parameterValue="0.16"/>
            <parameter index="36" name="EQ Band 5 Bandwidth" parameterValue="0.64"/>
            <parameter index="37" name="High-Pass Filter Enable" parameterValue="0"/>
            <parameter index="38" name="High-Pass Cutoff Frequency" parameterValue="0"/>
            <parameter index="39" name="High-Pass Slope" parameterValue="0.4"/>
            <parameter index="40" name="Low-Pass Filter Enable" parameterValue="0"/>
            <parameter index="41" name="Low-Pass Cutoff Frequency" parameterValue="0.906945"/>
            <parameter index="42" name="Low-Pass Slope" parameterValue="0.4"/>
            <parameter index="43" name="Bypass" parameterValue="0"/>
            <parameter index="44" name="LowGraphRange" parameterValue="1"/>
          </component>
        </trackAudioParameters>
        <editParameter parameterIndex="0" slotIndex="4294967280"/>
        <audioClip clipAutoCrossfade="true" crossFadeHeadClipID="-1" crossFadeTailClipID="-1" endPoint="46617" fileID="0" hue="-1" id="0" lockedInTime="false" looped="false" name="Track 3_001" offline="false" select="false" sourceInPoint="300028" sourceOutPoint="321896" startPoint="24749" zOrder="0">
          <component componentGuid="7eaa22b2-2cc4-41f7-9315-02ca0a51dd7d" componentID="Audition.Fader" id="clipGain" name="volume" powered="true">
            <parameter index="0" name="volume" parameterValue="1"/>
            <parameter index="1" name="static gain" parameterValue="1"/>
          </component>
          <component componentGuid="162c8811-c9c4-4801-85eb-f5c7427bf08c" componentID="Audition.Mute" id="clipMute" name="Mute" powered="true">
            <parameter index="0" parameterValue="0"/>
            <parameter index="1" name="mute" parameterValue="0"/>
          </component>
          <component componentGuid="10b16779-5833-4ee9-9fa9-9a0d68fe21fb" componentID="Audition.StereoPanner" id="clipPan" name="StereoPanner" powered="true">
            <parameter index="0" name="Pan" parameterValue="0"/>
          </component>
          <fadeIn crossFadeLinkType="linkedAsymmetric" endPoint="3322" shape="27" startPoint="0" type="log"/>
          <fadeOut crossFadeLinkType="linkedAsymmetric" endPoint="21868" shape="45" startPoint="16648" type="log"/>
          <clipStretch adaptiveWindowSize="37" pitchAdjustment="0" preserveFormants="true" stretchMode="realtime" stretchQuality="high" stretchRatio="1.1300707973748128" stretchType="solo" transientSensitivity="40"/>
          <editParameter parameterIndex="0" slotIndex="4294967280"/>
          <editParameter parameterIndex="0" slotIndex="4294967281"/>
          <channelMap>
            <channel index="0" sourceIndex="0"/>
            <channel index="1" sourceIndex="1"/>
          </channelMap>
        </audioClip>
      </audioTrack>
      <audioTrack automationLaneOpenState="false" id="10007" index="7" select="false" visible="true">
        <trackParameters trackHeight="134" trackHue="261.379852294921875" trackMinimized="false">
          <name>Track 7</name>
        </trackParameters>
        <trackAudioParameters audioChannelType="stereo" automationMode="1" monitoring="false" recordArmed="false" solo="false" soloSafe="false">
          <trackOutput outputID="10000" type="trackID"/>
          <trackInput inputID="1"/>
          <component componentGuid="cf9ef540-bc51-4864-8769-677d7f062050" componentID="Audition.Fader" id="trackFader" name="volume" powered="true">
            <parameter index="0" name="volume" parameterValue="1"/>
            <parameter index="1" name="static gain" parameterValue="1"/>
          </component>
          <component componentGuid="289ad6f3-c1ab-46e8-874f-65b811caa6b8" componentID="Audition.Mute" id="trackMute" name="Mute" powered="true">
            <parameter index="0" parameterValue="1"/>
            <parameter index="1" name="mute" parameterValue="0"/>
          </component>
          <component componentGuid="4563f206-85d9-4522-ab64-ae2d6c2ec66f" componentID="Audition.StereoPanner" id="trackPan" name="StereoPanner" powered="true">
            <parameter index="0" name="Pan" parameterValue="0"/>
          </component>
          <component componentGuid="f4e67f7d-ab08-46af-b330-eb9e640f4143" componentID="Audition.EQ" id="trackEQ" name="EQ" powered="false">
            <parameter index="0" name="Low Shelf Frequency" parameterValue="0.0009079"/>
            <parameter index="1" name="Low Shelf Gain" parameterValue="0.5"/>
            <parameter index="2" name="High Shelf Frequency" parameterValue="0.8161598"/>
            <parameter index="3" name="High Shelf Gain" parameterValue="0.5"/>
            <parameter index="4" name="EQ Band 1 Center Frequency" parameterValue="0.0013618"/>
            <parameter index="5" name="EQ Band 1 Q" parameterValue="0.0002"/>
            <parameter index="6" name="EQ Band 1 Gain" parameterValue="0.5"/>
            <parameter index="7" name="EQ Band 1 Enable" parameterValue="1"/>
            <parameter index="8" name="EQ Band 2 Center Frequency" parameterValue="0.0081707"/>
            <parameter index="9" name="EQ Band 2 Q" parameterValue="0.0002"/>
            <parameter index="10" name="EQ Band 2 Gain" parameterValue="0.5"/>
            <parameter index="11" name="EQ Band 2 Enable" parameterValue="1"/>
            <parameter index="12" name="EQ Band 3 Center Frequency" parameterValue="0.0354063"/>
            <parameter index="13" name="EQ Band 3 Q" parameterValue="0.0002"/>
            <parameter index="14" name="EQ Band 3 Gain" parameterValue="0.5"/>
            <parameter index="15" name="EQ Band 3 Enable" parameterValue="1"/>
            <parameter index="16" name="EQ Band 4 Center Frequency" parameterValue="0.1443486"/>
            <parameter index="17" name="EQ Band 4 Q" parameterValue="0.0002"/>
            <parameter index="18" name="EQ Band 4 Gain" parameterValue="0.5"/>
            <parameter index="19" name="EQ Band 4 Enable" parameterValue="1"/>
            <parameter index="20" name="EQ Band 5 Center Frequency" parameterValue="0.580118"/>
            <parameter index="21" name="EQ Band 5 Q" parameterValue="0.0002"/>
            <parameter index="22" name="EQ Band 5 Gain" parameterValue="0.5"/>
            <parameter index="23" name="EQ Band 5 Enable" parameterValue="1"/>
            <parameter index="24" name="Master Gain" parameterValue="0.6666667"/>
            <parameter index="25" name="ConstantQ" parameterValue="1"/>
            <parameter index="26" name="Low Shelf Filter Order" parameterValue="0"/>
            <parameter index="27" name="High Shelf Filter Order" parameterValue="0"/>
            <parameter index="28" name="Ultra-Quiet Mode" parameterValue="0"/>
            <parameter index="29" name="Low Shelf Enable" parameterValue="1"/>
            <parameter index="30" name="High Shelf Enable" parameterValue="1"/>
            <parameter index="31" name="Original Sample Rate" parameterValue="0.2296875"/>
            <parameter index="32" name="EQ Band 1 Bandwidth" parameterValue="0.0025"/>
            <parameter index="33" name="EQ Band 2 Bandwidth" parameterValue="0.01"/>
            <parameter index="34" name="EQ Band 3 Bandwidth" parameterValue="0.04"/>
            <parameter index="35" name="EQ Band 4 Bandwidth" parameterValue="0.16"/>
            <parameter index="36" name="EQ Band 5 Bandwidth" parameterValue="0.64"/>
            <parameter index="37" name="High-Pass Filter Enable" parameterValue="0"/>
            <parameter index="38" name="High-Pass Cutoff Frequency" parameterValue="0"/>
            <parameter index="39" name="High-Pass Slope" parameterValue="0.4"/>
            <parameter index="40" name="Low-Pass Filter Enable" parameterValue="0"/>
            <parameter index="41" name="Low-Pass Cutoff Frequency" parameterValue="0.906945"/>
            <parameter index="42" name="Low-Pass Slope" parameterValue="0.4"/>
            <parameter index="43" name="Bypass" parameterValue="0"/>
            <parameter index="44" name="LowGraphRange" parameterValue="1"/>
          </component>
        </trackAudioParameters>
        <editParameter parameterIndex="0" slotIndex="4294967280"/>
        <audioClip clipAutoCrossfade="true" crossFadeHeadClipID="-1" crossFadeTailClipID="-1" endPoint="48979" fileID="0" hue="-1" id="0" lockedInTime="false" looped="false" name="Track 3_001" offline="false" select="false" sourceInPoint="547170" sourceOutPoint="571400" startPoint="24749" zOrder="10">
          <component componentGuid="ea158628-2bd0-4a84-907e-bc75663009fd" componentID="Audition.Fader" id="clipGain" name="volume" powered="true">
            <parameter index="0" name="volume" parameterValue="1"/>
            <parameter index="1" name="static gain" parameterValue="1"/>
          </component>
          <component componentGuid="6ff79038-107c-40c6-88a9-45a7750362b9" componentID="Audition.Mute" id="clipMute" name="Mute" powered="true">
            <parameter index="0" parameterValue="0"/>
            <parameter index="1" name="mute" parameterValue="0"/>
          </component>
          <component componentGuid="dc7bd328-c2fb-4b0b-afa5-fdfbf04e1519" componentID="Audition.StereoPanner" id="clipPan" name="StereoPanner" powered="true">
            <parameter index="0" name="Pan" parameterValue="0"/>
          </component>
          <fadeIn crossFadeLinkType="linkedAsymmetric" endPoint="2278" shape="-24" startPoint="0" type="log"/>
          <fadeOut crossFadeLinkType="linkedAsymmetric" endPoint="24230" shape="32" startPoint="20900" type="log"/>
          <clipStretch adaptiveWindowSize="37" pitchAdjustment="0" preserveFormants="true" stretchMode="realtime" stretchQuality="high" stretchRatio="1.5147745573779754" stretchType="solo" transientSensitivity="40"/>
          <editParameter parameterIndex="0" slotIndex="4294967280"/>
          <editParameter parameterIndex="0" slotIndex="4294967281"/>
          <channelMap>
            <channel index="0" sourceIndex="0"/>
            <channel index="1" sourceIndex="1"/>
          </channelMap>
        </audioClip>
      </audioTrack>
      <audioTrack automationLaneOpenState="false" id="10008" index="8" select="false" visible="true">
        <trackParameters trackHeight="134" trackHue="75.1851940155029297" trackMinimized="false">
          <name>Track 8</name>
        </trackParameters>
        <trackAudioParameters audioChannelType="stereo" automationMode="1" monitoring="false" recordArmed="true" solo="true" soloSafe="false">
          <trackOutput outputID="10000" type="trackID"/>
          <trackInput inputID="1"/>
          <component componentGuid="99c96b89-cd1a-43c8-bef4-d89b3806ce1d" componentID="Audition.Fader" id="trackFader" name="volume" powered="true">
            <parameter index="0" name="volume" parameterValue="1"/>
            <parameter index="1" name="static gain" parameterValue="1"/>
          </component>
          <component componentGuid="28b5aaec-9625-430c-9614-047f3a0b22ff" componentID="Audition.Mute" id="trackMute" name="Mute" powered="true">
            <parameter index="0" parameterValue="0"/>
            <parameter index="1" name="mute" parameterValue="0"/>
          </component>
          <component componentGuid="512ef891-e64c-4ba6-9043-d63eb72ca976" componentID="Audition.StereoPanner" id="trackPan" name="StereoPanner" powered="true">
            <parameter index="0" name="Pan" parameterValue="0"/>
          </component>
          <component componentGuid="87d3b938-5591-453f-8f0e-4580157e9f43" componentID="Audition.EQ" id="trackEQ" name="EQ" powered="false">
            <parameter index="0" name="Low Shelf Frequency" parameterValue="0.0009079"/>
            <parameter index="1" name="Low Shelf Gain" parameterValue="0.5"/>
            <parameter index="2" name="High Shelf Frequency" parameterValue="0.8161598"/>
            <parameter index="3" name="High Shelf Gain" parameterValue="0.5"/>
            <parameter index="4" name="EQ Band 1 Center Frequency" parameterValue="0.0013618"/>
            <parameter index="5" name="EQ Band 1 Q" parameterValue="0.0002"/>
            <parameter index="6" name="EQ Band 1 Gain" parameterValue="0.5"/>
            <parameter index="7" name="EQ Band 1 Enable" parameterValue="1"/>
            <parameter index="8" name="EQ Band 2 Center Frequency" parameterValue="0.0081707"/>
            <parameter index="9" name="EQ Band 2 Q" parameterValue="0.0002"/>
            <parameter index="10" name="EQ Band 2 Gain" parameterValue="0.5"/>
            <parameter index="11" name="EQ Band 2 Enable" parameterValue="1"/>
            <parameter index="12" name="EQ Band 3 Center Frequency" parameterValue="0.0354063"/>
            <parameter index="13" name="EQ Band 3 Q" parameterValue="0.0002"/>
            <parameter index="14" name="EQ Band 3 Gain" parameterValue="0.5"/>
            <parameter index="15" name="EQ Band 3 Enable" parameterValue="1"/>
            <parameter index="16" name="EQ Band 4 Center Frequency" parameterValue="0.1443486"/>
            <parameter index="17" name="EQ Band 4 Q" parameterValue="0.0002"/>
            <parameter index="18" name="EQ Band 4 Gain" parameterValue="0.5"/>
            <parameter index="19" name="EQ Band 4 Enable" parameterValue="1"/>
            <parameter index="20" name="EQ Band 5 Center Frequency" parameterValue="0.580118"/>
            <parameter index="21" name="EQ Band 5 Q" parameterValue="0.0002"/>
            <parameter index="22" name="EQ Band 5 Gain" parameterValue="0.5"/>
            <parameter index="23" name="EQ Band 5 Enable" parameterValue="1"/>
            <parameter index="24" name="Master Gain" parameterValue="0.6666667"/>
            <parameter index="25" name="ConstantQ" parameterValue="1"/>
            <parameter index="26" name="Low Shelf Filter Order" parameterValue="0"/>
            <parameter index="27" name="High Shelf Filter Order" parameterValue="0"/>
            <parameter index="28" name="Ultra-Quiet Mode" parameterValue="0"/>
            <parameter index="29" name="Low Shelf Enable" parameterValue="1"/>
            <parameter index="30" name="High Shelf Enable" parameterValue="1"/>
            <parameter index="31" name="Original Sample Rate" parameterValue="0.2296875"/>
            <parameter index="32" name="EQ Band 1 Bandwidth" parameterValue="0.0025"/>
            <parameter index="33" name="EQ Band 2 Bandwidth" parameterValue="0.01"/>
            <parameter index="34" name="EQ Band 3 Bandwidth" parameterValue="0.04"/>
            <parameter index="35" name="EQ Band 4 Bandwidth" parameterValue="0.16"/>
            <parameter index="36" name="EQ Band 5 Bandwidth" parameterValue="0.64"/>
            <parameter index="37" name="High-Pass Filter Enable" parameterValue="0"/>
            <parameter index="38" name="High-Pass Cutoff Frequency" parameterValue="0"/>
            <parameter index="39" name="High-Pass Slope" parameterValue="0.4"/>
            <parameter index="40" name="Low-Pass Filter Enable" parameterValue="0"/>
            <parameter index="41" name="Low-Pass Cutoff Frequency" parameterValue="0.906945"/>
            <parameter index="42" name="Low-Pass Slope" parameterValue="0.4"/>
            <parameter index="43" name="Bypass" parameterValue="0"/>
            <parameter index="44" name="LowGraphRange" parameterValue="1"/>
          </component>
        </trackAudioParameters>
        <editParameter parameterIndex="0" slotIndex="4294967280"/>
        <audioClip clipAutoCrossfade="true" crossFadeHeadClipID="-1" crossFadeTailClipID="-1" endPoint="167247" fileID="1" hue="-1" id="0" lockedInTime="false" looped="false" name="Track 8_002" offline="false" select="false" sourceInPoint="0" sourceOutPoint="86223" startPoint="81024" zOrder="0">
          <component componentGuid="34288bf0-f578-48d0-b4f3-c654a440a110" componentID="Audition.Fader" id="clipGain" name="volume" powered="true">
            <parameter index="0" name="volume" parameterValue="1"/>
            <parameter index="1" name="static gain" parameterValue="1"/>
          </component>
          <component componentGuid="c4e69df0-41e7-47a0-a80a-e730ba3b7951" componentID="Audition.Mute" id="clipMute" name="Mute" powered="true">
            <parameter index="0" parameterValue="0"/>
            <parameter index="1" name="mute" parameterValue="0"/>
          </component>
          <component componentGuid="3584f333-81ba-43e0-9a17-467260a8366d" componentID="Audition.StereoPanner" id="clipPan" name="StereoPanner" powered="true">
            <parameter index="0" name="Pan" parameterValue="0"/>
          </component>
          <fadeIn crossFadeLinkType="linkedAsymmetric" endPoint="0" shape="0" startPoint="0" type="cosine"/>
          <fadeOut crossFadeLinkType="linkedAsymmetric" endPoint="86223" shape="0" startPoint="86223" type="cosine"/>
          <take sourceInPoint="0"/>
          <editParameter parameterIndex="0" slotIndex="4294967280"/>
          <editParameter parameterIndex="0" slotIndex="4294967281"/>
          <channelMap>
            <channel index="0" sourceIndex="0"/>
            <channel index="1" sourceIndex="1"/>
          </channelMap>
        </audioClip>
        <audioClip clipAutoCrossfade="true" crossFadeHeadClipID="-1" crossFadeTailClipID="-1" endPoint="419460" fileID="2" hue="-1" id="1" lockedInTime="false" looped="false" name="Track 8_003" offline="false" select="false" sourceInPoint="0" sourceOutPoint="252213" startPoint="167247" zOrder="1">
          <component componentGuid="2ab2571f-687b-492c-ac61-4cf71c794028" componentID="Audition.Fader" id="clipGain" name="volume" powered="true">
            <parameter index="0" name="volume" parameterValue="1"/>
            <parameter index="1" name="static gain" parameterValue="1"/>
          </component>
          <component componentGuid="d63f92a2-298a-449a-b0eb-a46ad9f01563" componentID="Audition.Mute" id="clipMute" name="Mute" powered="true">
            <parameter index="0" parameterValue="0"/>
            <parameter index="1" name="mute" parameterValue="0"/>
          </component>
          <component componentGuid="70cba243-6782-476b-b165-0d2fb28d8cd9" componentID="Audition.StereoPanner" id="clipPan" name="StereoPanner" powered="true">
            <parameter index="0" name="Pan" parameterValue="0"/>
          </component>
          <fadeIn crossFadeLinkType="linkedAsymmetric" endPoint="0" shape="0" startPoint="0" type="cosine"/>
          <fadeOut crossFadeLinkType="linkedAsymmetric" endPoint="252213" shape="0" startPoint="252213" type="cosine"/>
          <take sourceInPoint="0"/>
          <editParameter parameterIndex="0" slotIndex="4294967280"/>
          <editParameter parameterIndex="0" slotIndex="4294967281"/>
          <channelMap>
            <channel index="0" sourceIndex="0"/>
            <channel index="1" sourceIndex="1"/>
          </channelMap>
        </audioClip>
      </audioTrack>
      <masterTrack automationLaneOpenState="false" id="10000" index="9" select="false" visible="true">
        <trackParameters trackHeight="134" trackHue="-1" trackMinimized="false">
          <name>Master</name>
        </trackParameters>
        <trackAudioParameters audioChannelType="stereo" automationMode="1" monitoring="false" recordArmed="false" solo="true" soloSafe="true">
          <trackOutput outputID="1" type="hardwareOutput"/>
          <trackInput inputID="-1"/>
          <component componentGuid="d2eb2047-5c7b-4340-8135-3532d3997e22" componentID="Audition.Fader" id="trackFader" name="volume" powered="true">
            <parameter index="0" name="volume" parameterValue="1"/>
            <parameter index="1" name="static gain" parameterValue="1"/>
          </component>
          <component componentGuid="f8b3a8c9-6224-4952-871f-b960399da6d5" componentID="Audition.Mute" id="trackMute" name="Mute" powered="true">
            <parameter index="0" parameterValue="0"/>
            <parameter index="1" name="mute" parameterValue="0"/>
          </component>
          <component componentGuid="08dc6f7c-905c-415e-81cc-1f8d29241b04" componentID="Audition.StereoPanner" id="trackPan" name="StereoPanner" powered="true">
            <parameter index="0" name="Pan" parameterValue="0"/>
          </component>
          <component componentGuid="18719d9f-90e0-4ea7-ad8a-c0e4977d8c42" componentID="Audition.EQ" id="trackEQ" name="EQ" powered="false">
            <parameter index="0" name="Low Shelf Frequency" parameterValue="0.0009079"/>
            <parameter index="1" name="Low Shelf Gain" parameterValue="0.5"/>
            <parameter index="2" name="High Shelf Frequency" parameterValue="0.8161598"/>
            <parameter index="3" name="High Shelf Gain" parameterValue="0.5"/>
            <parameter index="4" name="EQ Band 1 Center Frequency" parameterValue="0.0013618"/>
            <parameter index="5" name="EQ Band 1 Q" parameterValue="0.0002"/>
            <parameter index="6" name="EQ Band 1 Gain" parameterValue="0.5"/>
            <parameter index="7" name="EQ Band 1 Enable" parameterValue="1"/>
            <parameter index="8" name="EQ Band 2 Center Frequency" parameterValue="0.0081707"/>
            <parameter index="9" name="EQ Band 2 Q" parameterValue="0.0002"/>
            <parameter index="10" name="EQ Band 2 Gain" parameterValue="0.5"/>
            <parameter index="11" name="EQ Band 2 Enable" parameterValue="1"/>
            <parameter index="12" name="EQ Band 3 Center Frequency" parameterValue="0.0354063"/>
            <parameter index="13" name="EQ Band 3 Q" parameterValue="0.0002"/>
            <parameter index="14" name="EQ Band 3 Gain" parameterValue="0.5"/>
            <parameter index="15" name="EQ Band 3 Enable" parameterValue="1"/>
            <parameter index="16" name="EQ Band 4 Center Frequency" parameterValue="0.1443486"/>
            <parameter index="17" name="EQ Band 4 Q" parameterValue="0.0002"/>
            <parameter index="18" name="EQ Band 4 Gain" parameterValue="0.5"/>
            <parameter index="19" name="EQ Band 4 Enable" parameterValue="1"/>
            <parameter index="20" name="EQ Band 5 Center Frequency" parameterValue="0.580118"/>
            <parameter index="21" name="EQ Band 5 Q" parameterValue="0.0002"/>
            <parameter index="22" name="EQ Band 5 Gain" parameterValue="0.5"/>
            <parameter index="23" name="EQ Band 5 Enable" parameterValue="1"/>
            <parameter index="24" name="Master Gain" parameterValue="0.6666667"/>
            <parameter index="25" name="ConstantQ" parameterValue="1"/>
            <parameter index="26" name="Low Shelf Filter Order" parameterValue="0"/>
            <parameter index="27" name="High Shelf Filter Order" parameterValue="0"/>
            <parameter index="28" name="Ultra-Quiet Mode" parameterValue="0"/>
            <parameter index="29" name="Low Shelf Enable" parameterValue="1"/>
            <parameter index="30" name="High Shelf Enable" parameterValue="1"/>
            <parameter index="31" name="Original Sample Rate" parameterValue="0.2296875"/>
            <parameter index="32" name="EQ Band 1 Bandwidth" parameterValue="0.0025"/>
            <parameter index="33" name="EQ Band 2 Bandwidth" parameterValue="0.01"/>
            <parameter index="34" name="EQ Band 3 Bandwidth" parameterValue="0.04"/>
            <parameter index="35" name="EQ Band 4 Bandwidth" parameterValue="0.16"/>
            <parameter index="36" name="EQ Band 5 Bandwidth" parameterValue="0.64"/>
            <parameter index="37" name="High-Pass Filter Enable" parameterValue="0"/>
            <parameter index="38" name="High-Pass Cutoff Frequency" parameterValue="0"/>
            <parameter index="39" name="High-Pass Slope" parameterValue="0.4"/>
            <parameter index="40" name="Low-Pass Filter Enable" parameterValue="0"/>
            <parameter index="41" name="Low-Pass Cutoff Frequency" parameterValue="0.906945"/>
            <parameter index="42" name="Low-Pass Slope" parameterValue="0.4"/>
            <parameter index="43" name="Bypass" parameterValue="0"/>
            <parameter index="44" name="LowGraphRange" parameterValue="1"/>
          </component>
        </trackAudioParameters>
        <editParameter parameterIndex="0" slotIndex="4294967280"/>
      </masterTrack>
    </tracks>
    <sessionState ctiPosition="407721" smpteStart="0">
      <selectionState selectionDuration="0" selectionStart="407721"/>
      <viewState horizontalViewDuration="788532" horizontalViewStart="0" trackControlsWidth="224" verticalScrollOffset="0"/>
      <timeFormatState beatsPerBar="4" beatsPerMinute="120" customFrameRate="12" linkToDefaultTimeSettings="true" noteLength="4" subdivisions="16" timeCodeDropFrame="false" timeCodeFrameRate="30" timeCodeNTSC="false" timeFormat="timeFormatDecimal"/>
      <mixingOptionState defaultPanModeLogarithmic="false" panPower="-3"/>
    </sessionState>
    <xmpMetadata><![CDATA[<?xpacket begin="﻿" id="W5M0MpCehiHzreSzNTczkc9d"?>
<x:xmpmeta xmlns:x="adobe:ns:meta/" x:xmptk="Adobe XMP Core 5.6-c144 79.162045, 2018/01/23-06:05:52        ">
   <rdf:RDF xmlns:rdf="http://www.w3.org/1999/02/22-rdf-syntax-ns#">
      <rdf:Description rdf:about=""
            xmlns:xmp="http://ns.adobe.com/xap/1.0/"
            xmlns:xmpMM="http://ns.adobe.com/xap/1.0/mm/"
            xmlns:stEvt="http://ns.adobe.com/xap/1.0/sType/ResourceEvent#"
            xmlns:dc="http://purl.org/dc/elements/1.1/"
            xmlns:xmpDM="http://ns.adobe.com/xmp/1.0/DynamicMedia/">
         <xmp:CreatorTool>Adobe Audition CC 2018.1 (Windows)</xmp:CreatorTool>
         <xmp:CreateDate>2018-11-08T23:29:42-05:00</xmp:CreateDate>
         <xmp:MetadataDate>2018-11-10T09:13:13-05:00</xmp:MetadataDate>
         <xmp:ModifyDate>2018-11-10T09:13:13-05:00</xmp:ModifyDate>
         <xmpMM:InstanceID>xmp.iid:f071bbfd-3d22-1f4c-a71b-d9f2f2647f58</xmpMM:InstanceID>
         <xmpMM:DocumentID>xmp.did:d5b257f7-299c-0649-92cc-ee17f33714fb</xmpMM:DocumentID>
         <xmpMM:OriginalDocumentID>xmp.did:d5b257f7-299c-0649-92cc-ee17f33714fb</xmpMM:OriginalDocumentID>
         <xmpMM:History>
            <rdf:Seq>
               <rdf:li rdf:parseType="Resource">
                  <stEvt:action>saved</stEvt:action>
                  <stEvt:instanceID>xmp.iid:d5b257f7-299c-0649-92cc-ee17f33714fb</stEvt:instanceID>
                  <stEvt:when>2018-11-08T23:29:42-05:00</stEvt:when>
                  <stEvt:softwareAgent>Adobe Audition CC 2018.1 (Windows)</stEvt:softwareAgent>
                  <stEvt:changed>/metadata</stEvt:changed>
               </rdf:li>
               <rdf:li rdf:parseType="Resource">
                  <stEvt:action>saved</stEvt:action>
                  <stEvt:instanceID>xmp.iid:94e47547-636b-9d4e-be1d-869eaa8ce513</stEvt:instanceID>
                  <stEvt:when>2018-11-10T09:13:13-05:00</stEvt:when>
                  <stEvt:softwareAgent>Adobe Audition CC 2018.1 (Windows)</stEvt:softwareAgent>
                  <stEvt:changed>/metadata</stEvt:changed>
               </rdf:li>
               <rdf:li rdf:parseType="Resource">
                  <stEvt:action>saved</stEvt:action>
                  <stEvt:instanceID>xmp.iid:f071bbfd-3d22-1f4c-a71b-d9f2f2647f58</stEvt:instanceID>
                  <stEvt:when>2018-11-10T09:13:13-05:00</stEvt:when>
                  <stEvt:softwareAgent>Adobe Audition CC 2018.1 (Windows)</stEvt:softwareAgent>
                  <stEvt:changed>/</stEvt:changed>
               </rdf:li>
            </rdf:Seq>
         </xmpMM:History>
         <dc:format>application/xml</dc:format>
         <xmpDM:Tracks>
            <rdf:Bag>
               <rdf:li rdf:parseType="Resource">
                  <xmpDM:trackName>CuePoint Markers</xmpDM:trackName>
                  <xmpDM:trackType>Cue</xmpDM:trackType>
                  <xmpDM:frameRate>f44100</xmpDM:frameRate>
               </rdf:li>
               <rdf:li rdf:parseType="Resource">
                  <xmpDM:trackName>CD Track Markers</xmpDM:trackName>
                  <xmpDM:trackType>Track</xmpDM:trackType>
                  <xmpDM:frameRate>f44100</xmpDM:frameRate>
               </rdf:li>
               <rdf:li rdf:parseType="Resource">
                  <xmpDM:trackName>Subclip Markers</xmpDM:trackName>
                  <xmpDM:trackType>InOut</xmpDM:trackType>
                  <xmpDM:frameRate>f44100</xmpDM:frameRate>
               </rdf:li>
            </rdf:Bag>
         </xmpDM:Tracks>
      </rdf:Description>
   </rdf:RDF>
</x:xmpmeta>
                                                                                                    
                                                                                                    
                                                                                                    
                                                                                                    
                                                                                                    
                                                                                                    
                                                                                                    
                                                                                                    
                                                                                                    
                                                                                                    
                                                                                                    
                                                                                                    
                                                                                                    
                                                                                                    
                                                                                                    
                                                                                                    
                                                                                                    
                                                                                                    
                                                                                                    
                                                                                                    
                           
<?xpacket end="w"?>]]></xmpMetadata>
    <clipGroups/>
    <metronome enabled="false" pattern="downBeat subdivision subdivision subdivision " soundSet="sticks">
      <metronomeTrack automationLaneOpenState="false" id="40000" index="0" select="false" visible="false">
        <trackParameters trackHeight="77" trackHue="-1" trackMinimized="false">
          <name>Metronome</name>
        </trackParameters>
        <trackAudioParameters audioChannelType="mono" automationMode="1" monitoring="false" recordArmed="false" solo="false" soloSafe="true">
          <trackOutput outputID="10000" type="trackID"/>
          <trackInput inputID="-1"/>
          <component componentGuid="f3379d44-91f4-4fca-b0a6-0be73940a5f4" componentID="Audition.Fader" id="trackFader" name="volume" powered="true">
            <parameter index="0" name="volume" parameterValue="0.5011872"/>
            <parameter index="1" name="static gain" parameterValue="1"/>
          </component>
          <component componentGuid="1d7825e5-d497-4376-9d76-73c153d27af0" componentID="Audition.Mute" id="trackMute" name="Mute" powered="true">
            <parameter index="0" parameterValue="0"/>
            <parameter index="1" name="mute" parameterValue="0"/>
          </component>
          <component componentGuid="de6ce611-94e1-422f-b001-502e52ac27f8" componentID="Audition.StereoPanner" id="trackPan" name="StereoPanner" powered="true">
            <parameter index="0" name="Pan" parameterValue="0"/>
          </component>
          <component componentGuid="0f9166f7-f8f4-417d-b3df-2eeaba3a290e" componentID="Audition.EQ" id="trackEQ" name="EQ" powered="false">
            <parameter index="0" name="Low Shelf Frequency" parameterValue="0.0009079"/>
            <parameter index="1" name="Low Shelf Gain" parameterValue="0.5"/>
            <parameter index="2" name="High Shelf Frequency" parameterValue="0.8161598"/>
            <parameter index="3" name="High Shelf Gain" parameterValue="0.5"/>
            <parameter index="4" name="EQ Band 1 Center Frequency" parameterValue="0.0013618"/>
            <parameter index="5" name="EQ Band 1 Q" parameterValue="0.0002"/>
            <parameter index="6" name="EQ Band 1 Gain" parameterValue="0.5"/>
            <parameter index="7" name="EQ Band 1 Enable" parameterValue="1"/>
            <parameter index="8" name="EQ Band 2 Center Frequency" parameterValue="0.0081707"/>
            <parameter index="9" name="EQ Band 2 Q" parameterValue="0.0002"/>
            <parameter index="10" name="EQ Band 2 Gain" parameterValue="0.5"/>
            <parameter index="11" name="EQ Band 2 Enable" parameterValue="1"/>
            <parameter index="12" name="EQ Band 3 Center Frequency" parameterValue="0.0354063"/>
            <parameter index="13" name="EQ Band 3 Q" parameterValue="0.0002"/>
            <parameter index="14" name="EQ Band 3 Gain" parameterValue="0.5"/>
            <parameter index="15" name="EQ Band 3 Enable" parameterValue="1"/>
            <parameter index="16" name="EQ Band 4 Center Frequency" parameterValue="0.1443486"/>
            <parameter index="17" name="EQ Band 4 Q" parameterValue="0.0002"/>
            <parameter index="18" name="EQ Band 4 Gain" parameterValue="0.5"/>
            <parameter index="19" name="EQ Band 4 Enable" parameterValue="1"/>
            <parameter index="20" name="EQ Band 5 Center Frequency" parameterValue="0.580118"/>
            <parameter index="21" name="EQ Band 5 Q" parameterValue="0.0002"/>
            <parameter index="22" name="EQ Band 5 Gain" parameterValue="0.5"/>
            <parameter index="23" name="EQ Band 5 Enable" parameterValue="1"/>
            <parameter index="24" name="Master Gain" parameterValue="0.6666667"/>
            <parameter index="25" name="ConstantQ" parameterValue="1"/>
            <parameter index="26" name="Low Shelf Filter Order" parameterValue="0"/>
            <parameter index="27" name="High Shelf Filter Order" parameterValue="0"/>
            <parameter index="28" name="Ultra-Quiet Mode" parameterValue="0"/>
            <parameter index="29" name="Low Shelf Enable" parameterValue="1"/>
            <parameter index="30" name="High Shelf Enable" parameterValue="1"/>
            <parameter index="31" name="Original Sample Rate" parameterValue="0.2296875"/>
            <parameter index="32" name="EQ Band 1 Bandwidth" parameterValue="0.0025"/>
            <parameter index="33" name="EQ Band 2 Bandwidth" parameterValue="0.01"/>
            <parameter index="34" name="EQ Band 3 Bandwidth" parameterValue="0.04"/>
            <parameter index="35" name="EQ Band 4 Bandwidth" parameterValue="0.16"/>
            <parameter index="36" name="EQ Band 5 Bandwidth" parameterValue="0.64"/>
            <parameter index="37" name="High-Pass Filter Enable" parameterValue="0"/>
            <parameter index="38" name="High-Pass Cutoff Frequency" parameterValue="0"/>
            <parameter index="39" name="High-Pass Slope" parameterValue="0.4"/>
            <parameter index="40" name="Low-Pass Filter Enable" parameterValue="0"/>
            <parameter index="41" name="Low-Pass Cutoff Frequency" parameterValue="0.906945"/>
            <parameter index="42" name="Low-Pass Slope" parameterValue="0.4"/>
            <parameter index="43" name="Bypass" parameterValue="0"/>
            <parameter index="44" name="LowGraphRange" parameterValue="1"/>
          </component>
        </trackAudioParameters>
        <editParameter parameterIndex="0" slotIndex="4294967280"/>
      </metronomeTrack>
    </metronome>
    <properties>
      <property key="EssentialSoundConfigurations">[{"Guid":"a8b40e3e-13e7-4c1f-b382-96058f1f691d","Name":"$$$/app/Presets/DefaultPresetName=(Default)","PresetData":{"ModeID":"ambience","Models":{"model_loudness":{"DefaultLoudness":{"type":"float","value":-30},"LoudnessStandard":{"type":"std::uint32_t","value":0},"MaxLoudness":{"type":"float","value":-12},"MinLoudness":{"type":"float","value":-42}},"model_soundeffects":{"ReverbPresets":{"type":"tree::any","value":{"$$$/app/Presets/EssentialSound/ReverbPreset/LargeRoomAmbience=Large Room Ambience":{"type":"array::float","value":[0.051507499068975449,0.32432401180267334,0.29292899370193481,0.30000001192092896,0.20000000298023224,0,0.14285700023174286,0.40000000596046448,0.5,0.69999998807907104,0.30000001192092896,0.25125628709793091,0.03125]},"$$$/app/Presets/EssentialSound/ReverbPreset/OutsideAmbience=Outside Ambience":{"type":"array::float","value":[0.091708503663539886,0.043893899768590927,1,0.5,0.20000000298023224,0.80000001192092896,0.18367299437522888,1,0.5,0,0.80000001192092896,0.25125628709793091,0.03125]},"$$$/app/Presets/EssentialSound/ReverbPreset/RoomAmbience=Room Ambience":{"type":"array::float","value":[0.057788901031017303,0.44944900274276733,0.49494898319244385,0.89999997615814209,0.10000000149011612,0.15000000596046448,0.081632703542709351,0.40000000596046448,0.5,0.80000001192092896,0.20000000298023224,0.25125628709793091,0.03125]},"$$$/app/Presets/EssentialSound/ReverbPreset/WindEffect=Wind Effect":{"type":"array::float","value":[0.19597999751567841,0.6896899938583374,0.69696998596191406,0.25,0.5,0.5,0.23469400405883789,0.51999998092651367,0.5,0.75,0.25,0.25125628709793091,0.03125]}}}},"model_stereowidth":{},"model_volume":{"MaxGain":{"type":"float","value":15},"MinGain":{"type":"float","value":-60}}}},"Type":"1c19ca71-c24c-49cd-8dd5-2cc46018507a","Version":1},{"Guid":"58dc27a8-6a2a-480c-bd0c-4b45fff346a6","Name":"$$$/app/Presets/DefaultPresetName=(Default)","PresetData":{"ModeID":"dialog","Models":{"model_clarity":{"EQPresets":{"type":"tree::any","value":{"$$$/app/Presets/EssentialSound/EQPreset/BackgroundVoice=Background Voice":{"type":"array::float","value":[0.12099699676036835,0.5,0.39240506291389465,0,0.5,0.5,0.5,0.5,0.5,0.47827938199043274,0.45772689580917358,0.45778733491897583,0.47946760058403015,0.5,0]},"$$$/app/Presets/EssentialSound/EQPreset/Intercom=Intercom":{"type":"array::float","value":[0.19432899355888367,0.5,1,0,0.071499988436698914,0.071499988436698914,0.071499988436698914,0.40238627791404724,0.48571401834487915,0.5,0.55155748128890991,0.59602576494216919,0.22246670722961426,0.071499988436698914,0]},"$$$/app/Presets/EssentialSound/EQPreset/LockedInTheTrunk=Locked in the Trunk":{"type":"array::float","value":[0.12099699676036835,0.5,0.79746836423873901,0,0.5,0.5,0.5,0.5,0.5,0.32846158742904663,0.15721426904201508,0.15721426904201508,0.15721426904201508,0.15721426904201508,0]},"$$$/app/Presets/EssentialSound/EQPreset/OldRadio=Old Radio":{"type":"array::float","value":[0.12099699676036835,0.5,0.79746836423873901,0,0.15721426904201508,0.15721426904201508,0.15721426904201508,0.28442040085792542,0.48315632343292236,0.36498492956161499,0.52853888273239136,0.43511500954627991,0.27154684066772461,0.15721426904201508,0]},"$$$/app/Presets/EssentialSound/EQPreset/OnTheTelephone=On the Telephone":{"type":"array::float","value":[0.12099699676036835,0.5,0.39240506291389465,0,0.32864287495613098,0.32864287495613098,0.32864287495613098,0.32864287495613098,0.48571401834487915,0.53071397542953491,0.53071397542953491,0.48357096314430237,0.32864287495613098,0.32864287495613098,0]},"$$$/app/Presets/EssentialSound/EQPreset/OutsideOfTheRoom=Outside of the Room":{"type":"array::float","value":[0.12099699676036835,0.5,0.79746836423873901,0,0.42539370059967041,0.47865453362464905,0.5,0.5,0.48571401834487915,0.40073278546333313,0.25656309723854065,0.15721426904201508,0.15721426904201508,0.15721426904201508,0]},"$$$/app/Presets/EssentialSound/EQPreset/PodcastVoice=Podcast Voice":{"type":"array::float","value":[0.12099699676036835,0.5,0.39240506291389465,0,0.5,0.5,0.5,0.51789408922195435,0.50770342350006104,0.5,0.51789408922195435,0.528114914894104,0.5102812647819519,0.5,0]},"$$$/app/Presets/EssentialSound/EQPreset/SubtleBoostFemale=Subtle Boost (Female)":{"type":"array::float","value":[0.096553400158882141,0.5,0.29113924503326416,0,0.5,0.5,0.5,0.5,0.5,0.51933407783508301,0.54642897844314575,0.52706766128540039,0.5,0.5,0]},"$$$/app/Presets/EssentialSound/EQPreset/SubtleBoostMale=Subtle Boost (Male)":{"type":"array::float","value":[0.096553400158882141,0.5,0.29113924503326416,0,0.5,0.5,0.5,0.5,0.5,0.5135338306427002,0.54642897844314575,0.51933407783508301,0.5,0.5,0]},"$$$/app/Presets/EssentialSound/EQPreset/ThatPublicRadioSound=That Public Radio Sound":{"type":"array::float","value":[0.12099699676036835,0.5,0.79746836423873901,0,0.15721426904201508,0.15721426904201508,0.15721426904201508,0.36334344744682312,0.49468311667442322,0.5,0.5,0.5,0.5,0.5,0]},"$$$/app/Presets/EssentialSound/EQPreset/VocalPresence=Vocal Presence":{"type":"array::float","value":[0.096553400158882141,0.5,0.32489451766014099,0,0.3572143018245697,0.3572143018245697,0.46428570151329041,0.47857141494750977,0.4763694703578949,0.49570354819297791,0.55924957990646362,0.56523394584655762,0.50859290361404419,0.46992480754852295,0]}}}},"model_loudness":{"DefaultLoudness":{"type":"float","value":-23},"LoudnessStandard":{"type":"std::uint32_t","value":0},"MaxLoudness":{"type":"float","value":-12},"MinLoudness":{"type":"float","value":-42}},"model_restoration":{"ReduceNoiseMaxSetting":{"type":"array::float","value":[0.60000002384185791,0.40000000596046448,0.5,0.5,0.2465750128030777,0.60000002384185791,2048,0,0]},"ReduceNoiseMinSetting":{"type":"array::float","value":[0.375,0.20000000298023224,0.60000002384185791,0.5625,0.10958899557590485,0.30000001192092896,512,0,0]},"ReduceRumbleMaxSetting":{"type":"array::float","value":[1,0.084112152457237244,0.375,0,0,0.00083333335351198912,1,0,1,0.0390625,0.00083408987848088145,0,0.0041666668839752674,0.00022554649331141263,0.0046875001862645149,0.75,0.0052083334885537624,0.75,1,0.75,0.0040520834736526012,0.75,0.0042629167437553406,0.00022554649331141263,0.0064883334562182426,0.00022554649331141263,0.006866666954010725,0.75,0.0071704164147377014,0.00022554649331141263,0.01041458360850811,0.00022554649331141263,0.010900000110268593,0.75,0.011407917365431786,0.00022554649331141263,0.015606249682605267,0.00022554649331141263,0.016333334147930145,0.75,0.017094582319259644,0.00022554649331141263,0.026243748143315315,0.00022554649331141263,0.0274666678160429,0.75,0.028746666386723518,0.00022554649331141263,0.041658751666545868,0.00022554649331141263,0.043600000441074371,0.75,0.045631669461727142,0.00022554649331141263,0.062424581497907639,0.00022554649331141263,0.065333336591720581,0.75,0.068377502262592316,0.00022554649331141263,0.10497540980577469,0.00022554649331141263,0.1098666712641716,0.75,0.11498583108186722,0.00022554649331141263,0.16663584113121033,0.00022554649331141263,0.17440000176429749,0.75,0.18252624571323395,0.00022554649331141263,0.91874998807907104,0.00022554649331141263,1,0.00022554649331141263,0,0,0,0,0,0,0,0,0,0,0,0,0,0,0,0,0,0,0,0,0,0,0,0,0,0,0,0,0,0,0,0,0,0,0,0,0,0,0,0,0,0,0,0,0,0,0,0,0,0,0,0,0,0,0,0,0,0,0,0,0,0,0,0,0,0,0,0,0,0,0,0,0,0,0,0,0,0,0,0,0,0,0,0,0,0,0,0,0,0,0,0,0,0,0,0,0,0,0,0,0,0,0,0,0,0,0,0,0,0,0,0,0,0,0,0,0,0,0,0,0,0,0,0,0,0,0,0,0,0,0,0,0,0,0,0,0,0,0,0,0,0,0,0,0,0,0,0,0,0,0,0,0,0,0,0,0,0,0,0,0,0,0,0,0,0,0,0,0,0,0,0,0,0,0,0,0,0,0,0,0,0,0,0,0,0,0,0,0,0]},"ReduceRumbleMinSetting":{"type":"array::float","value":[1,0.084112152457237244,0.375,0,0,0.00083333335351198912,1,0,1,0.0390625,0.00083408987848088145,0.75,0.0041666668839752674,0.75,0.0046875001862645149,0.75,0.0052083334885537624,0.75,1,0.75,0.91874998807907104,0.61237245798110962,1,0.61237245798110962,0,0,0,0,0,0,0,0,0,0,0,0,0,0,0,0,0,0,0,0,0,0,0,0,0,0,0,0,0,0,0,0,0,0,0,0,0,0,0,0,0,0,0,0,0,0,0,0,0,0,0,0,0,0,0,0,0,0,0,0,0,0,0,0,0,0,0,0,0,0,0,0,0,0,0,0,0,0,0,0,0,0,0,0,0,0,0,0,0,0,0,0,0,0,0,0,0,0,0,0,0,0,0,0,0,0,0,0,0,0,0,0,0,0,0,0,0,0,0,0,0,0,0,0,0,0,0,0,0,0,0,0,0,0,0,0,0,0,0,0,0,0,0,0,0,0,0,0,0,0,0,0,0,0,0,0,0,0,0,0,0,0,0,0,0,0,0,0,0,0,0,0,0,0,0,0,0,0,0,0,0,0,0,0,0,0,0,0,0,0,0,0,0,0,0,0,0,0,0,0,0,0,0,0,0,0,0,0,0,0,0,0,0,0,0,0,0,0,0,0,0,0,0,0,0,0,0,0,0,0,0,0,0,0,0,0,0,0,0,0,0,0]},"ReduceSibilanceMaxSetting":{"type":"array::float","value":[0.5,0.19983997941017151,0.18367347121238708,0.26086956262588501,0.52702701091766357,0,1,0,0,0,0,0.75,1,1,0.40000000596046448]},"ReduceSibilanceMinSetting":{"type":"array::float","value":[0.875,0.19983997941017151,0.18367347121238708,0.19130434095859528,0.25675675272941589,0,1,0,0,0,0,0.75,1,1,0.40000000596046448]}},"model_soundeffects":{"ReverbPresets":{"type":"tree::any","value":{"$$$/app/Presets/EssentialSound/ReverbPreset/Auditorium=Auditorium":{"type":"array::float","value":[0.013047545216977596,0.15895412862300873,1,0.89999997615814209,0,0.52007436752319336,0.41663265228271484,0.46000000834465027,0.5,0.73000001907348633,0.15999999642372131,0.75376886129379272,0.03125]},"$$$/app/Presets/EssentialSound/ReverbPreset/Church=Church":{"type":"array::float","value":[0.032663315534591675,0.39939939975738525,0.79797977209091187,0.25,0.5,0.5,0.2297959178686142,0.72000002861022949,0.5,0.62999999523162842,0.87999999523162842,0.25125628709793091,0.03125]},"$$$/app/Presets/EssentialSound/ReverbPreset/LargeReflectiveRoom=Large Reflective Room":{"type":"array::float","value":[0.0074449013918638229,0.098988421261310577,0.79890537261962891,0.89999997615814209,0.10000000149011612,0.40110713243484497,0.060284845530986786,0.27522978186607361,0.5,0.73000001907348633,0.31999999284744263,0.25125628709793091,0.03125]},"$$$/app/Presets/EssentialSound/ReverbPreset/OutsideTheClub=Outside the Club":{"type":"array::float","value":[0.020615793764591217,0.050136558711528778,0.69696998596191406,0.25,0.094355784356594086,0.22242647409439087,0.1071428582072258,0.2800000011920929,0.5,0.73000001907348633,0.46000000834465027,0.25125628709793091,0.03125]},"$$$/app/Presets/EssentialSound/ReverbPreset/SmallDryRoom=Small Dry Room":{"type":"array::float","value":[0.24623115360736847,0.69975000619888306,0.29292899370193481,0.40000000596046448,0.20000000298023224,0.40000000596046448,0.039285715669393539,0.10000000149011612,0.5,1,0.5,0.75376886129379272,0.03125]},"$$$/app/Presets/EssentialSound/ReverbPreset/ThickenVoice=Thicken Voice":{"type":"array::float","value":[0.19597999751567841,0.23931467533111572,0.69696998596191406,0.25,0.5,0.53999996185302734,0.020408162847161293,0.20945435762405396,0.5,1,0.34999999403953552,0.25125628709793091,0.03125]},"$$$/app/Presets/EssentialSound/ReverbPreset/WarmRoom=Warm Room":{"type":"array::float","value":[0.020100502297282219,0.074074074625968933,0.49494948983192444,0.40000000596046448,0.74960309267044067,0.40000000596046448,0.1239795908331871,0.67000001668930054,0.5,0.85000002384185791,0.56000000238418579,0.25125628709793091,0.03125]},"$$$/app/Presets/EssentialSound/ReverbPreset/WarmVoice=Warm Voice":{"type":"array::float","value":[0.19597989320755005,0.89989989995956421,0,0.40000000596046448,0.20000000298023224,0.40000000596046448,0.10204081982374191,0.090000003576278687,0.5,1,0.30000001192092896,0.25125628709793091,0.03125]}}}},"model_volume":{"MaxGain":{"type":"float","value":15},"MinGain":{"type":"float","value":-60}}}},"Type":"1c19ca71-c24c-49cd-8dd5-2cc46018507a","Version":1},{"Guid":"353811fa-4179-435e-8e5e-23028ba15a7a","Name":"$$$/app/Presets/DefaultPresetName=(Default)","PresetData":{"ModeID":"generic","Models":{"model_volume":{"MaxGain":{"type":"float","value":15},"MinGain":{"type":"float","value":-60}}}},"Type":"1c19ca71-c24c-49cd-8dd5-2cc46018507a","Version":1},{"Guid":"31ba96a6-5d3e-4d89-b1e1-1dbe3c055d0c","Name":"$$$/app/Presets/DefaultPresetName=(Default)","PresetData":{"ModeID":"music","Models":{"model_ducking":{},"model_duration":{},"model_loudness":{"DefaultLoudness":{"type":"float","value":-25},"LoudnessStandard":{"type":"std::uint32_t","value":0},"MaxLoudness":{"type":"float","value":-12},"MinLoudness":{"type":"float","value":-42}},"model_volume":{"MaxGain":{"type":"float","value":15},"MinGain":{"type":"float","value":-60}}}},"Type":"1c19ca71-c24c-49cd-8dd5-2cc46018507a","Version":1},{"Guid":"cea63332-1adc-44a9-a6eb-5490f965859b","Name":"$$$/app/Presets/DefaultPresetName=(Default)","PresetData":{"ModeID":"sfx","Models":{"model_loudness":{"DefaultLoudness":{"type":"float","value":-21},"LoudnessStandard":{"type":"std::uint32_t","value":0},"MaxLoudness":{"type":"float","value":-12},"MinLoudness":{"type":"float","value":-42}},"model_pan":{},"model_soundeffects":{"ReverbPresets":{"type":"tree::any","value":{"$$$/app/Presets/EssentialSound/ReverbPreset/HeavyReverb=Heavy Reverb":{"type":"array::float","value":[0.13316600024700165,0.29929900169372559,1,0.95999997854232788,0.85000002384185791,0.5,0.51530599594116211,0.30000001192092896,0.5,0.5,0.5,0.25125628709793091,0.0625]},"$$$/app/Presets/EssentialSound/ReverbPreset/LightReverb=Light Reverb":{"type":"array::float","value":[0.095477402210235596,0.29929900169372559,0.090909101068973541,1,1,0.80000001192092896,0.22449000179767609,0.60000002384185791,0.5,0.69999998807907104,0.30000001192092896,0.25125628709793091,0.0625]},"$$$/app/Presets/EssentialSound/ReverbPreset/OutsideReverb=Outside Reverb":{"type":"array::float","value":[0.091708503663539886,0.043893899768590927,1,0.5,0.20000000298023224,0.80000001192092896,0.18367299437522888,1,0.5,0,0.80000001192092896,0.25125628709793091,0.0625]},"$$$/app/Presets/EssentialSound/ReverbPreset/RoomReverb=Room Reverb":{"type":"array::float","value":[0.057788901031017303,0.44944900274276733,0.49494898319244385,0.89999997615814209,0.10000000149011612,0.15000000596046448,0.081632703542709351,0.40000000596046448,0.5,0.80000001192092896,0.20000000298023224,0.25125628709793091,0.0625]}}}},"model_volume":{"MaxGain":{"type":"float","value":15},"MinGain":{"type":"float","value":-60}}}},"Type":"1c19ca71-c24c-49cd-8dd5-2cc46018507a","Version":1}]</property>
    </properties>
  </session>

  <files>
    <file absolutePath="D:\D drive for Heagney\GitHub\UE4MegaJamHeagney\Audition\Untitled Session 1\Untitled Session 1_Recorded\Track 3_001.wav" id="0" mediaHandler="AmioWav" relativePath="Untitled Session 1_Recorded/Track 3_001.wav"/>
    <file absolutePath="D:\D drive for Heagney\GitHub\UE4MegaJamHeagney\Audition\Untitled Session 1\Untitled Session 1_Recorded\Track 8_002.wav" id="1" mediaHandler="AmioWav" relativePath="Untitled Session 1_Recorded/Track 8_002.wav"/>
    <file absolutePath="D:\D drive for Heagney\GitHub\UE4MegaJamHeagney\Audition\Untitled Session 1\Untitled Session 1_Recorded\Track 8_003.wav" id="2" mediaHandler="AmioWav" relativePath="Untitled Session 1_Recorded/Track 8_003.wav"/>
    <file absolutePath="D:\D drive for Heagney\GitHub\UE4MegaJamHeagney\Audition\Untitled Session 1\Imported Files\Openingrev.wav" id="3" importerPrivateSettings="Compression:0:0;LargeFileSupport:0:0;SampleType:0:1;" mediaHandler="AmioWav" relativePath="Imported Files/Openingrev.wav"/>
    <file absolutePath="D:\D drive for Heagney\GitHub\UE4MegaJamHeagney\Audition\Untitled Session 1\Imported Files\Untitled 3.wav" id="4" importerPrivateSettings="Compression:0:0;LargeFileSupport:0:0;SampleType:0:1;" mediaHandler="AmioWav" relativePath="Imported Files/Untitled 3.wav"/>
  </files>

  <audioDevice inputID="1FE91C1B-FDEC-4A22-9AD5-FDEF97BEBAB1" outputID="02F9DBDA-149C-4C91-A758-4B28BD336447">
    <inputPort id="1" name="Default Stereo Input"/>
    <inputPort id="2" name="[01M] Microphone (HD Webcam C615) 1"/>
    <inputPort id="3" name="[02M] Microphone (HD Webcam C615) 2"/>
    <inputPort id="4" name="[01S] Microphone (HD Webcam C615) 1"/>
    <outputPort id="1" name="Default Output"/>
    <outputPort id="2" name="[01M] Speakers (Dell AC511 USB SoundBar) 1"/>
    <outputPort id="3" name="[02M] Speakers (Dell AC511 USB SoundBar) 2"/>
    <outputPort id="4" name="Default Stereo Output"/>
    <outputPort id="5" name="[01S] Speakers (Dell AC511 USB SoundBar) 1"/>
    <outputPort id="6" name="Default Surround Output"/>
  </audioDevice>

</sesx>
